<?xml version="1.0" encoding="UTF-8" standalone="no"?>
<!-- Created with Inkscape (http://www.inkscape.org/) -->

<svg
   version="1.1"
   id="svg1"
   width="200"
   height="200"
   viewBox="0 0 200 200"
   sodipodi:docname="WhatsApp Image 2023-11-09 at 14.45.50.svg"
   inkscape:export-filename="..\Desktop\Logo_Proservices@.png"
   inkscape:export-xdpi="96"
   inkscape:export-ydpi="96"
   inkscape:version="1.3 (0e150ed6c4, 2023-07-21)"
   xmlns:inkscape="http://www.inkscape.org/namespaces/inkscape"
   xmlns:sodipodi="http://sodipodi.sourceforge.net/DTD/sodipodi-0.dtd"
   xmlns="http://www.w3.org/2000/svg"
   xmlns:svg="http://www.w3.org/2000/svg">
  <defs
     id="defs1" />
  <sodipodi:namedview
     id="namedview1"
     pagecolor="#ffffff"
     bordercolor="#000000"
     borderopacity="0.25"
     inkscape:showpageshadow="2"
     inkscape:pageopacity="0.0"
     inkscape:pagecheckerboard="0"
     inkscape:deskcolor="#d1d1d1"
     showgrid="false"
     inkscape:zoom="4"
     inkscape:cx="59.125"
     inkscape:cy="118.375"
     inkscape:window-width="1920"
     inkscape:window-height="1009"
     inkscape:window-x="-8"
     inkscape:window-y="-8"
     inkscape:window-maximized="1"
     inkscape:current-layer="g1" />
  <g
     inkscape:groupmode="layer"
     inkscape:label="Image"
     id="g1">
    <path
       id="rect1"
       style="fill:#0c2d94;stroke-width:56.244;stroke-linejoin:bevel"
       d="M 18.72577,28.083913 H 184.10566 V 170.76458 H 18.72577 Z"
       inkscape:label="rect1" />
    <path
       style="font-size:4.66667px;font-family:Ebrima;-inkscape-font-specification:Ebrima;text-align:center;text-anchor:middle;fill:#ffffff;stroke-width:41.7091;stroke-linejoin:bevel"
       d="m 46.560425,115.76108 v 5.37194 h -1.699193 v -14.21284 h 3.985017 q 2.32628,0 3.600674,1.11006 1.284509,1.11007 1.284509,3.13199 0,2.0219 -1.426108,3.31038 -1.415992,1.28847 -3.833303,1.28847 z m 0,-7.33439 v 5.82787 h 1.780106 q 1.759886,0 2.680285,-0.78299 0.930514,-0.79291 0.930514,-2.23005 0,-2.81483 -3.398396,-2.81483 z m 15.080364,4.20242 q -0.434909,-0.3271 -1.254171,-0.3271 -1.061991,0 -1.780104,0.98122 -0.708005,0.98122 -0.708005,2.67607 v 5.17372 h -1.658737 v -10.14921 h 1.658737 v 2.09128 h 0.04043 q 0.353975,-1.07041 1.082222,-1.66509 0.728229,-0.60461 1.628391,-0.60461 0.647314,0 0.991193,0.1387 z m 6.129234,8.74179 q -2.295936,0 -3.671465,-1.41732 -1.365431,-1.42723 -1.365431,-3.77622 0,-2.55712 1.426118,-3.99428 1.426102,-1.43713 3.853527,-1.43713 2.316165,0 3.610794,1.39749 1.304743,1.3975 1.304743,3.87533 0,2.42829 -1.405872,3.89515 -1.395775,1.45698 -3.752414,1.45698 z m 0.121438,-9.25719 q -1.598049,0 -2.52857,1.07042 -0.930506,1.06052 -0.930506,2.93376 0,1.80385 0.94062,2.84455 0.940636,1.04069 2.518456,1.04069 1.608164,0 2.467884,-1.02086 0.869834,-1.02087 0.869834,-2.90402 0,-1.90298 -0.869834,-2.93376 -0.85972,-1.03078 -2.467884,-1.03078 z m 7.059758,8.6526 v -1.7444 q 1.35531,0.98122 2.98371,0.98122 2.18467,0 2.18467,-1.42723 0,-0.40636 -0.19212,-0.68388 -0.1821,-0.28741 -0.50573,-0.50548 -0.31355,-0.21807 -0.74846,-0.38653 -0.4248,-0.17845 -0.92039,-0.36673 -0.68778,-0.26758 -1.21372,-0.5352 -0.51582,-0.27752 -0.86981,-0.61451 -0.34388,-0.3469 -0.52596,-0.78299 -0.17191,-0.43611 -0.17191,-1.02087 0,-0.71363 0.33379,-1.25874 0.33378,-0.55504 0.89006,-0.92175 0.55629,-0.37665 1.26429,-0.56496 0.7181,-0.18826 1.47667,-0.18826 1.34521,0 2.4072,0.45592 v 1.64528 q -1.14291,-0.73344 -2.6297,-0.73344 -0.46527,0 -0.83949,0.10914 -0.37424,0.0991 -0.64731,0.28739 -0.26292,0.18826 -0.41467,0.45592 -0.14157,0.25766 -0.14157,0.57485 0,0.39647 0.14157,0.66406 0.1518,0.2676 0.43493,0.47575 0.28319,0.20814 0.68775,0.37665 0.4046,0.1685 0.92041,0.36672 0.68777,0.2577 1.23394,0.53522 0.54617,0.26758 0.93051,0.61449 0.38433,0.33698 0.58662,0.78301 0.21241,0.446 0.21241,1.06051 0,0.75327 -0.34386,1.30829 -0.33381,0.55504 -0.90018,0.92175 -0.5664,0.36673 -1.30474,0.54513 -0.73833,0.17845 -1.54748,0.17845 -1.59805,0 -2.7713,-0.60459 z m 17.74042,-4.30152 h -7.3126 q 0.0404,1.69483 0.93052,2.6166 0.89004,0.92174 2.44765,0.92174 1.74977,0 3.21633,-1.12988 v 1.52633 q -1.36543,0.97132 -3.6108,0.97132 -2.19479,0 -3.44896,-1.37767 -1.25417,-1.3876 -1.25417,-3.89515 0,-2.36884 1.36543,-3.85553 1.37553,-1.4966 3.40851,-1.4966 2.03297,0 3.14552,1.28846 1.11258,1.28848 1.11258,3.57799 z m -1.69918,-1.37767 q -0.01,-1.40743 -0.69789,-2.19042 -0.67765,-0.78299 -1.89137,-0.78299 -1.17325,0 -1.99251,0.82264 -0.81925,0.82265 -1.01143,2.15077 z m 9.608541,-2.45801 q -0.43491,-0.3271 -1.254151,-0.3271 -1.062,0 -1.78012,0.98122 -0.708,0.98122 -0.708,2.67607 v 5.17372 h -1.65873 v -10.14921 h 1.65873 v 2.09128 h 0.0404 q 0.35398,-1.07041 1.08222,-1.66509 0.72823,-0.60461 1.62841,-0.60461 0.647301,0 0.991191,0.1387 z m 9.94234,-1.6453 -4.12663,10.14921 h -1.6284 l -3.92433,-10.14921 h 1.82057 l 2.6297,7.37404 q 0.29339,0.81273 0.36414,1.41732 h 0.0403 q 0.10114,-0.76316 0.32382,-1.37767 l 2.75109,-7.41369 z m 2.6297,-2.57694 q -0.44504,0 -0.75856,-0.29735 -0.31356,-0.29733 -0.31356,-0.75327 0,-0.45592 0.31356,-0.75325 0.31355,-0.30729 0.75856,-0.30729 0.45516,0 0.76869,0.30729 0.32381,0.29735 0.32381,0.75325 0,0.43611 -0.32381,0.74337 -0.31357,0.30727 -0.76869,0.30727 z m 0.80915,12.72615 h -1.65874 v -10.14921 h 1.65874 z m 10.4177,-0.46583 q -1.19348,0.70371 -2.83201,0.70371 -2.21502,0 -3.58043,-1.40741 -1.35532,-1.41733 -1.35532,-3.6672 0,-2.50756 1.46655,-4.024 1.46659,-1.52634 3.91421,-1.52634 1.36545,0 2.40721,0.49557 v 1.66509 q -1.15302,-0.7929 -2.46786,-0.7929 -1.58795,0 -2.60951,1.11997 -1.01142,1.11007 -1.01142,2.92385 0,1.78404 0.95074,2.81482 0.96085,1.03078 2.56904,1.03078 1.35532,0 2.5488,-0.8821 z m 10.83238,-4.2024 h -7.31263 q 0.0403,1.69483 0.93052,2.6166 0.89005,0.92174 2.44762,0.92174 1.74982,0 3.21635,-1.12988 v 1.52633 q -1.36545,0.97132 -3.61081,0.97132 -2.19478,0 -3.44893,-1.37767 -1.25417,-1.3876 -1.25417,-3.89515 0,-2.36884 1.36541,-3.85553 1.37556,-1.4966 3.4085,-1.4966 2.03299,0 3.14553,1.28846 1.11261,1.28848 1.11261,3.57799 z m -1.69924,-1.37767 q -0.01,-1.40743 -0.69784,-2.19042 -0.67769,-0.78299 -1.89138,-0.78299 -1.17327,0 -1.99254,0.82264 -0.81923,0.82265 -1.01139,2.15077 z m 3.58047,5.67919 v -1.7444 q 1.35533,0.98122 2.98372,0.98122 2.18466,0 2.18466,-1.42723 0,-0.40636 -0.19184,-0.68388 -0.18191,-0.28741 -0.50569,-0.50548 -0.31389,-0.21807 -0.74848,-0.38653 -0.42489,-0.17845 -0.9204,-0.36673 -0.68778,-0.26758 -1.21369,-0.5352 -0.51585,-0.27752 -0.86983,-0.61451 -0.34405,-0.3469 -0.52597,-0.78299 -0.17168,-0.43611 -0.17168,-1.02087 0,-0.71363 0.33394,-1.25874 0.33397,-0.55504 0.89011,-0.92175 0.55627,-0.37665 1.26426,-0.56496 0.71811,-0.18826 1.47669,-0.18826 1.34515,0 2.40719,0.45592 v 1.64528 q -1.14294,-0.73344 -2.6297,-0.73344 -0.46528,0 -0.8395,0.10914 -0.37438,0.0991 -0.6473,0.28739 -0.26328,0.18826 -0.41478,0.45592 -0.14157,0.25766 -0.14157,0.57485 0,0.39647 0.14157,0.66406 0.15148,0.2676 0.43499,0.47575 0.28346,0.20814 0.68777,0.37665 0.4047,0.1685 0.92041,0.36672 0.68776,0.2577 1.23394,0.53522 0.54616,0.26758 0.93049,0.61449 0.38448,0.33698 0.58665,0.78301 0.21234,0.446 0.21234,1.06051 0,0.75327 -0.34406,1.30829 -0.33394,0.55504 -0.90019,0.92175 -0.5664,0.36673 -1.30468,0.54513 -0.73839,0.17845 -1.54754,0.17845 -1.59803,0 -2.7713,-0.60459 z m 19.5104,-3.79605 h -0.0507 q -0.73833,2.35891 -2.90278,2.35891 -1.38566,0 -2.23528,-1.00105 -0.83948,-1.00106 -0.83948,-2.69589 0,-2.23996 1.16316,-3.71675 1.17327,-1.48669 3.07474,-1.48669 0.72823,0 1.2946,0.36671 0.57654,0.36673 0.73836,0.92175 h 0.0396 q 0.0232,-0.2775 0.10082,-1.13979 h 1.2643 q -0.47533,5.46114 -0.47533,5.56026 0,2.05164 1.20356,2.05164 1.09234,0 1.81046,-1.15963 0.72823,-1.15962 0.72823,-3.00314 0,-2.72562 -1.75988,-4.45019 -1.75987,-1.72457 -4.87507,-1.72457 -3.00392,0 -4.96609,2.06157 -1.96221,2.06156 -1.96221,5.15389 0,3.04278 1.86106,4.91603 1.87111,1.86333 5.03688,1.86333 2.49823,0 4.26823,-0.81274 v 1.22902 q -1.74979,0.73344 -4.36937,0.73344 -3.68157,0 -5.93708,-2.17059 -2.24536,-2.1805 -2.24536,-5.69902 0,-3.62756 2.35662,-6.01618 2.36676,-2.38863 6.03822,-2.38863 3.43885,0 5.69436,2.00208 2.25546,2.00209 2.25546,5.22328 0,2.35889 -1.19348,3.87533 -1.1834,1.50653 -2.89269,1.50653 -2.21504,0 -2.22516,-2.35891 z m -1.81046,-5.39177 q -1.25413,0 -2.03294,1.16955 -0.76872,1.16953 -0.76872,2.90402 0,1.16953 0.51586,1.8435 0.52597,0.67397 1.39577,0.67397 1.25417,0 1.9824,-1.21908 0.7383,-1.22901 0.7383,-3.25093 0,-2.12103 -1.83067,-2.12103 z"
       id="text1"
       aria-label="Proservices@" />
    <path
       style="font-weight:bold;font-size:2px;font-family:Ebrima;-inkscape-font-specification:'Ebrima Bold';text-align:center;text-anchor:middle;fill:#d73b33;stroke-width:22.4578;stroke-linejoin:bevel"
       d="m 59.037688,135.26468 v -1.53703 q 0.333497,0.35064 0.724513,0.52835 0.391016,0.17296 0.789669,0.17296 0.233849,0 0.406355,-0.0529 0.176325,-0.0529 0.29134,-0.14413 0.118722,-0.096 0.176326,-0.22091 0.05752,-0.12974 0.05752,-0.27857 0,-0.20176 -0.09204,-0.36021 -0.09204,-0.15851 -0.253008,-0.29298 -0.15723,-0.13454 -0.375628,-0.25939 -0.218477,-0.12479 -0.471516,-0.25459 -0.644007,-0.33622 -0.962172,-0.82133 -0.314355,-0.48512 -0.314355,-1.172 0,-0.53795 0.172492,-0.92221 0.172491,-0.38905 0.467682,-0.63883 0.298994,-0.24975 0.689993,-0.36505 0.391032,-0.12 0.828018,-0.12 0.429333,0 0.759006,0.0673 0.333508,0.0625 0.613344,0.19692 v 1.43617 q -0.138056,-0.12 -0.302845,-0.21136 -0.16105,-0.0914 -0.333508,-0.14893 -0.172491,-0.0625 -0.345013,-0.0912 -0.168687,-0.0291 -0.321987,-0.0291 -0.210824,0 -0.383378,0.0529 -0.172491,0.0483 -0.29134,0.13934 -0.118882,0.0912 -0.183964,0.2209 -0.06519,0.12496 -0.06519,0.2834 0,0.17296 0.07286,0.31224 0.07286,0.13438 0.206989,0.25935 0.134221,0.12 0.32587,0.24016 0.191681,0.11537 0.433152,0.24016 0.329641,0.17296 0.59035,0.3699 0.264464,0.19209 0.452326,0.43711 0.187846,0.24499 0.287505,0.56197 0.09971,0.31224 0.09971,0.73009 0,0.57638 -0.176325,0.97024 -0.172506,0.38905 -0.471516,0.63402 -0.29901,0.24016 -0.69768,0.3458 -0.394834,0.10562 -0.835672,0.10562 -0.452341,0 -0.862516,-0.096 -0.406355,-0.096 -0.705334,-0.28816 z m 6.405576,0.38429 q -0.98135,0 -1.544856,-0.68685 -0.559671,-0.69167 -0.559671,-1.87325 0,-1.22002 0.58268,-1.90687 0.582681,-0.69167 1.575519,-0.69167 0.977515,0 1.533352,0.69167 0.555836,0.68685 0.555836,1.82041 0,1.22482 -0.574995,1.93569 -0.571176,0.71087 -1.567865,0.71087 z m 0.03068,-3.99627 q -0.429333,0 -0.667,0.36985 -0.237652,0.36989 -0.237652,1.0471 0,1.41694 0.912354,1.41694 0.87017,0 0.87017,-1.45537 0,-1.37852 -0.877856,-1.37852 z m 4.109395,3.87619 h -1.211348 v -7.28164 h 1.211348 z m 4.74955,0 h -1.20751 v -0.74929 h -0.0192 q -0.44851,0.86937 -1.19984,0.86937 -1.36468,0 -1.36468,-2.07018 v -2.96837 h 1.20751 v 2.83388 q 0,1.04229 0.65933,1.04229 0.32587,0 0.52134,-0.28341 0.19548,-0.28816 0.19548,-0.77812 v -2.81468 h 1.20752 z m 3.99438,-0.17769 q -0.41018,0.29781 -1.1845,0.29781 -0.90469,0 -1.46436,-0.68684 -0.55967,-0.68686 -0.55967,-1.77239 0,-1.25363 0.598,-1.97411 0.60184,-0.72528 1.60619,-0.72528 0.69384,0 1.00434,0.23054 v 1.28727 q -0.37951,-0.35547 -0.84718,-0.35547 -0.52134,0 -0.828,0.38429 -0.30284,0.37946 -0.30284,1.0519 0,0.65324 0.29132,1.02789 0.29134,0.36988 0.80119,0.36988 0.45233,0 0.88549,-0.35546 z m 1.40686,-5.51886 q -0.30671,0 -0.50218,-0.22575 -0.19548,-0.23051 -0.19548,-0.56197 0,-0.34107 0.19548,-0.55718 0.19549,-0.21614 0.50218,-0.21614 0.31052,0 0.50217,0.21614 0.19548,0.21619 0.19548,0.55718 0,0.3458 -0.19548,0.56678 -0.19167,0.22091 -0.50217,0.22091 z m 0.59801,5.69658 h -1.21135 v -4.91846 h 1.21135 z m 2.89036,0.12 q -0.98134,0 -1.54484,-0.68685 -0.55967,-0.69165 -0.55967,-1.87325 0,-1.22001 0.58266,-1.90687 0.58267,-0.69165 1.57552,-0.69165 0.97752,0 1.53335,0.69165 0.55584,0.68686 0.55584,1.82041 0,1.22482 -0.57501,1.9357 -0.57116,0.71086 -1.56785,0.71086 z m 0.0308,-3.99625 q -0.42934,0 -0.66702,0.36984 -0.23768,0.36988 -0.23768,1.04709 0,1.41695 0.91233,1.41695 0.87019,0 0.87019,-1.45538 0,-1.37852 -0.87786,-1.37852 z m 6.68924,3.87618 h -1.20752 v -2.73301 q 0,-1.14317 -0.65167,-1.14317 -0.31435,0 -0.51751,0.30259 -0.20318,0.30257 -0.20318,0.7685 v 2.80508 h -1.21135 v -4.91848 h 1.21135 v 0.77812 h 0.016 q 0.43317,-0.8982 1.26118,-0.8982 1.30336,0 1.30336,2.02695 z m 4.48505,-2.02695 h -2.5607 q 0.0614,1.07111 1.07719,1.07111 0.64784,0 1.1385,-0.38429 v 1.09512 q -0.54433,0.36505 -1.4145,0.36505 -0.95069,0 -1.47586,-0.65804 -0.52517,-0.66283 -0.52517,-1.84442 0,-1.22482 0.56734,-1.94049 0.56734,-0.71568 1.39536,-0.71568 0.85866,0 1.32634,0.63883 0.4715,0.63882 0.4715,1.73395 z m -1.12308,-0.93184 q 0,-1.05671 -0.68234,-1.05671 -0.29134,0 -0.50601,0.30259 -0.21083,0.30257 -0.25683,0.7541 z m 1.58701,2.82908 v -1.22961 q 0.29901,0.22578 0.59418,0.33622 0.29901,0.11042 0.56351,0.11042 0.32199,0 0.506,-0.11042 0.18784,-0.11041 0.18784,-0.33622 0,-0.14413 -0.0844,-0.24018 -0.0844,-0.096 -0.21846,-0.16811 -0.13039,-0.0721 -0.28749,-0.12975 -0.15723,-0.0577 -0.30285,-0.12975 -0.23385,-0.11041 -0.41401,-0.23533 -0.17632,-0.12975 -0.29899,-0.29783 -0.11888,-0.16813 -0.18398,-0.38903 -0.0614,-0.22092 -0.0614,-0.52356 0,-0.41302 0.14189,-0.71086 0.14573,-0.29783 0.38336,-0.48512 0.24149,-0.19211 0.54819,-0.27857 0.31048,-0.0912 0.644,-0.0912 0.26071,0 0.52901,0.0529 0.26835,0.0483 0.52899,0.14413 v 1.17197 q -0.22996,-0.16812 -0.49449,-0.24974 -0.26071,-0.0864 -0.51369,-0.0864 -0.11872,0 -0.22613,0.0291 -0.10354,0.0241 -0.18396,0.0769 -0.0805,0.0483 -0.12655,0.12975 -0.046,0.0769 -0.046,0.17768 0,0.13438 0.069,0.23051 0.069,0.096 0.18017,0.16811 0.11122,0.0673 0.24536,0.12496 0.13805,0.0527 0.27215,0.11041 0.24148,0.10562 0.43703,0.23054 0.19547,0.1248 0.33349,0.29299 0.1419,0.16813 0.21469,0.39387 0.0767,0.22575 0.0767,0.53796 0,0.43711 -0.15339,0.74931 -0.14956,0.30741 -0.40249,0.50433 -0.24919,0.1921 -0.57883,0.27856 -0.32587,0.0912 -0.67852,0.0912 -0.64784,0 -1.19985,-0.24977 z m 7.103261,-0.44188 h -0.016 v 2.8339 h -1.21135 v -7.18078 h 1.21135 v 0.73968 h 0.016 q 0.44851,-0.85976 1.26117,-0.85976 0.76285,0 1.17686,0.65803 0.41781,0.65323 0.41781,1.78198 0,1.22963 -0.48684,1.97413 -0.483,0.74448 -1.28802,0.74448 -0.70917,0 -1.08099,-0.69166 z m -0.0347,-2.01733 v 0.39386 q 0,0.50915 0.21471,0.83096 0.21469,0.32183 0.56349,0.32183 0.41399,0 0.6402,-0.3987 0.22988,-0.40347 0.22988,-1.13836 0,-1.29687 -0.805,-1.29687 -0.37189,0 -0.60953,0.35548 -0.23384,0.35064 -0.23384,0.93182 z m 6.94229,2.58892 h -1.14619 v -0.70608 h -0.0165 q -0.39485,0.82615 -1.16919,0.82615 -0.57116,0 -0.90082,-0.40345 -0.32581,-0.40829 -0.32581,-1.08551 0,-1.43136 1.35318,-1.65232 l 1.0657,-0.17768 q 0,-0.80693 -0.6977,-0.80693 -0.70151,0 -1.334,0.52355 v -1.14317 q 0.25304,-0.16329 0.69001,-0.28814 0.44084,-0.12496 0.80116,-0.12496 1.67905,0 1.67905,2.099 z m -1.13854,-1.99814 v -0.33138 l -0.71298,0.11537 q -0.59035,0.096 -0.59035,0.66764 0,0.25935 0.14189,0.42744 0.14557,0.16331 0.39101,0.16331 0.34115,0 0.55586,-0.29299 0.21465,-0.29783 0.21465,-0.74931 z m 4.65757,-1.55144 q -0.21831,-0.14892 -0.50984,-0.14892 -0.39483,0 -0.61716,0.36507 -0.22228,0.36021 -0.22228,0.98464 v 2.34878 h -1.21133 v -4.91848 h 1.21133 v 0.91261 h 0.0166 q 0.28742,-0.99907 1.03502,-0.99907 0.19151,0 0.29899,0.0577 z m 3.82952,3.54958 h -1.14614 v -0.70608 h -0.0166 q -0.39487,0.82615 -1.16922,0.82615 -0.57115,0 -0.90081,-0.40345 -0.32581,-0.40829 -0.32581,-1.08551 0,-1.43136 1.35318,-1.65232 l 1.06567,-0.17768 q 0,-0.80693 -0.69767,-0.80693 -0.70151,0 -1.33401,0.52355 v -1.14317 q 0.25302,-0.16329 0.69002,-0.28814 0.44084,-0.12496 0.80116,-0.12496 1.67901,0 1.67901,2.099 z m -1.1385,-1.99814 v -0.33138 l -0.71298,0.11537 q -0.59035,0.096 -0.59035,0.66764 0,0.25935 0.14189,0.42744 0.14556,0.16331 0.39101,0.16331 0.34115,0 0.55585,-0.29299 0.21466,-0.29783 0.21466,-0.74931 z m 6.6356,1.94049 q -0.26825,0.17769 -0.80884,0.17769 -1.28038,0 -1.28038,-1.66671 v -2.2527 h -0.63633 v -1.11915 h 0.63633 v -1.0615 l 1.20755,-0.43227 v 1.49378 h 0.88167 v 1.11916 h -0.88167 v 1.98852 q 0,0.76851 0.48681,0.76851 0.19152,0 0.39486,-0.13933 z m 4.41221,0.0577 h -1.20751 v -0.74929 h -0.0198 q -0.44847,0.86938 -1.19982,0.86938 -1.36468,0 -1.36468,-2.07019 v -2.96837 h 1.20749 v 2.83388 q 0,1.04229 0.65935,1.04229 0.32579,0 0.52134,-0.28338 0.19548,-0.28816 0.19548,-0.77812 v -2.81468 h 1.20753 z m 6.92309,-4.91847 -1.4605,4.91847 h -1.38002 l -1.39154,-4.91847 h 1.29568 l 0.68236,3.03082 q 0.11504,0.51394 0.1339,0.87418 h 0.0128 q 0.0265,-0.34107 0.14189,-0.84537 l 0.6977,-3.05963 z m 1.13085,-0.77811 q -0.30662,0 -0.50217,-0.22578 -0.19548,-0.23051 -0.19548,-0.56197 0,-0.34107 0.19548,-0.55718 0.19549,-0.21608 0.50217,-0.21608 0.31058,0 0.50218,0.21608 0.19548,0.21619 0.19548,0.55718 0,0.34579 -0.19548,0.56676 -0.19151,0.22092 -0.50218,0.22092 z m 0.598,5.69658 h -1.21133 v -4.91847 h 1.21133 z m 4.86072,0 h -1.21138 v -0.67725 h -0.0128 q -0.41391,0.79734 -1.2152,0.79734 -0.73598,0 -1.18445,-0.64845 -0.44854,-0.65322 -0.44854,-1.82041 0,-1.22 0.49448,-1.9549 0.49456,-0.73489 1.29568,-0.73489 0.75904,0 1.05803,0.68207 h 0.0128 v -2.92515 h 1.21138 z m -1.18833,-2.39199 v -0.36989 q 0,-0.48034 -0.22226,-0.79732 -0.22228,-0.31697 -0.57886,-0.31697 -0.40251,0 -0.62865,0.39867 -0.22623,0.39387 -0.22623,1.08551 0,0.64843 0.2183,0.99907 0.2183,0.35064 0.60564,0.35064 0.36779,0 0.59802,-0.36989 0.23385,-0.36988 0.23385,-0.97985 z m 5.47408,2.39199 h -1.14622 v -0.70607 h -0.0128 q -0.39503,0.82616 -1.1692,0.82616 -0.57119,0 -0.90085,-0.40346 -0.32614,-0.40829 -0.32614,-1.08552 0,-1.43135 1.35321,-1.65231 l 1.06567,-0.17768 q 0,-0.80694 -0.69767,-0.80694 -0.70151,0 -1.33401,0.52356 v -1.14317 q 0.25302,-0.1633 0.68999,-0.28816 0.44084,-0.1248 0.80121,-0.1248 1.67899,0 1.67899,2.099 z m -1.1385,-1.99813 v -0.33138 l -0.71302,0.11537 q -0.59038,0.096 -0.59038,0.66763 0,0.25932 0.14189,0.42745 0.14588,0.16329 0.39104,0.16329 0.34099,0 0.55586,-0.29299 0.21499,-0.29781 0.21499,-0.7493 z"
       id="text2"
       aria-label="Soluciones para tu vida" />
    <g
       id="g5"
       transform="matrix(4.3939604,0,0,4.3939604,-298.423,-272.10471)"
       style="stroke:none">
      <path
         id="rect5"
         style="fill:#ffffff;stroke-width:0.0358567;stroke-linejoin:bevel"
         d="m 83.244826,81.974651 0.926158,-0.0039 c 0.181208,-7.64e-4 0.244681,0.682437 -0.02008,0.683594 l -0.894036,0.0039 c -0.211609,9.25e-4 -0.230002,-0.682674 -0.01204,-0.683594 z"
         sodipodi:nodetypes="sssss" />
      <path
         id="path2"
         style="fill:#ffffff;fill-opacity:1;stroke-width:16.107;stroke-linejoin:bevel"
         d="m 30.403636,79.478742 -3.566406,2.597656 1.261718,0.01563 v 0.96875 l 4.796875,0.01563 -0.01563,-0.984375 1.183594,-0.01563 z m -0.410156,1.365234 h 0.390625 v 0.390625 H 29.99348 Z m 0.521484,0 h 0.390625 v 0.390625 h -0.390625 z m -0.521484,0.476563 h 0.390625 v 0.392578 H 29.99348 Z m 0.521484,0 h 0.390625 v 0.392578 h -0.390625 z"
         transform="translate(59.0625,-2.3125)" />
      <path
         id="rect5-6"
         style="fill:#ffffff;stroke-width:0.0439229;stroke-linejoin:bevel"
         d="m 82.89712,83.164073 1.389719,-0.0039 c 0.271907,-7.64e-4 0.367148,0.682437 -0.03012,0.683594 l -1.341519,0.0039 c -0.317533,9.25e-4 -0.345132,-0.682674 -0.01808,-0.683594 z"
         sodipodi:nodetypes="sssss" />
      <path
         id="path3"
         style="fill:#ffffff;fill-opacity:1;stroke:none;stroke-width:0.0377953;stroke-linejoin:bevel;stroke-dasharray:none;stroke-opacity:1"
         d="m 93.582031,79.769531 0.0332,3.703125 h -0.398437 l -0.01172,-2.693359 -9.111329,-0.01367 C 84.01359,81 84.019929,81.234375 84.125,81.46875 h 3.1875 L 87.328125,82 h -2.4375 c -0.128621,0.21875 -0.118438,0.4375 0,0.65625 h 1.59375 L 86.5,83.234375 h -1.109375 c -0.144583,0.262868 -0.07162,0.455525 0.01563,0.601562 l 1.5,0.0078 0.01563,0.609375 L 83.59375,84.5 c -0.132287,0.259418 -0.0514,0.402119 0,0.546875 l 3.990234,0.02148 c -0.0041,-0.024 -0.0073,-0.0481 -0.0098,-0.07227 3.27e-4,-0.663393 0.612304,-1.201059 1.367187,-1.201172 0.754884,1.13e-4 1.366861,0.537779 1.367188,1.201172 -0.0027,0.02876 -0.0066,0.05742 -0.01172,0.08594 l 5.035156,0.02734 c -0.0085,-0.04266 -0.01437,-0.08569 -0.01758,-0.128906 3.27e-4,-0.663393 0.612304,-1.201059 1.367188,-1.201172 0.754883,1.13e-4 1.36686,0.537779 1.367187,1.201172 -0.0032,0.04848 -0.0097,0.09674 -0.01953,0.144531 h 0.169922 1.082031 c 0.350048,-4.260845 -1.217625,-4.952623 -2.953125,-5.332031 z m 0.927735,0.728516 1.123046,0.01172 c 1.319299,0.01183 2.297711,1.15377 2.585938,1.810546 l -3.697266,-0.04102 z"
         sodipodi:nodetypes="ccccccccccccccccccccccccccccccccccccc" />
      <path
         id="path5"
         style="fill:#da4433;fill-opacity:1;stroke:none;stroke-width:0.0396738;stroke-linejoin:bevel;stroke-dasharray:none;stroke-opacity:1"
         d="M 88.957668,84.013587 A 1.1457733,0.97389253 0 0 0 87.812337,84.987043 1.1457733,0.97389253 0 0 0 88.957668,85.9605 1.1457733,0.97389253 0 0 0 90.103,84.987043 1.1457733,0.97389253 0 0 0 88.957668,84.013587 Z m 0,0.59489 a 0.4758107,0.37877821 0 0 1 0.476276,0.378566 0.4758107,0.37877821 0 0 1 -0.476276,0.378567 0.4758107,0.37877821 0 0 1 -0.476275,-0.378567 0.4758107,0.37877821 0 0 1 0.476275,-0.378566 z" />
      <path
         id="path5-1"
         style="fill:#da4433;fill-opacity:1;stroke:none;stroke-width:0.0396738;stroke-linejoin:bevel;stroke-dasharray:none;stroke-opacity:1"
         d="m 96.702668,84.013837 a 1.1457733,0.97389253 0 0 0 -1.145331,0.973456 1.1457733,0.97389253 0 0 0 1.145331,0.973457 1.1457733,0.97389253 0 0 0 1.145332,-0.973457 1.1457733,0.97389253 0 0 0 -1.145332,-0.973456 z m 0,0.59489 a 0.4758107,0.37877821 0 0 1 0.476276,0.378566 0.4758107,0.37877821 0 0 1 -0.476276,0.378567 0.4758107,0.37877821 0 0 1 -0.476275,-0.378567 0.4758107,0.37877821 0 0 1 0.476275,-0.378566 z" />
    </g>
  </g>
</svg>
