<?xml version="1.0" encoding="UTF-8" standalone="no"?>
<!DOCTYPE svg PUBLIC "-//W3C//DTD SVG 1.1//EN" "http://www.w3.org/Graphics/SVG/1.1/DTD/svg11.dtd">
<svg xmlns="http://www.w3.org/2000/svg" version="1.1" viewBox="0.00 0.00 111.00 40.00">
<g stroke-width="2.00" fill="none" stroke-linecap="butt">
<path stroke="#696969" vector-effect="non-scaling-stroke" d="
  M 109.98 1.53
  A 0.51 0.51 0.0 0 0 109.47 1.02
  L 1.51 1.02
  A 0.51 0.51 0.0 0 0 1.00 1.53
  L 1.00 38.49
  A 0.51 0.51 0.0 0 0 1.51 39.00
  L 109.47 39.00
  A 0.51 0.51 0.0 0 0 109.98 38.49
  L 109.98 1.53"
/>
<path stroke="#792811" vector-effect="non-scaling-stroke" d="
  M 19.43 8.91
  A 0.42 0.42 0.0 0 0 19.01 8.49
  L 8.99 8.49
  A 0.42 0.42 0.0 0 0 8.57 8.91
  L 8.57 18.83
  A 0.42 0.42 0.0 0 0 8.99 19.25
  L 19.01 19.25
  A 0.42 0.42 0.0 0 0 19.43 18.83
  L 19.43 8.91"
/>
<path stroke="#3f5d00" vector-effect="non-scaling-stroke" d="
  M 31.5188 8.8595
  A 0.36 0.36 0.0 0 0 31.1594 8.4989
  L 20.9594 8.4811
  A 0.36 0.36 0.0 0 0 20.5988 8.8405
  L 20.5812 18.8805
  A 0.36 0.36 0.0 0 0 20.9406 19.2411
  L 31.1406 19.2589
  A 0.36 0.36 0.0 0 0 31.5012 18.8995
  L 31.5188 8.8595"
/>
<path stroke="#696969" vector-effect="non-scaling-stroke" d="
  M 58.2227 9.7769
  A 0.88 0.44 136.4 0 0 59.1634 9.4886
  A 0.88 0.44 136.4 0 0 59.4973 8.5631
  A 0.88 0.44 136.4 0 0 58.5566 8.8514
  A 0.88 0.44 136.4 0 0 58.2227 9.7769"
/>
<path stroke="#7f7f7f" vector-effect="non-scaling-stroke" d="
  M 40.75 9.74
  Q 41.23 9.64 42.21 9.86
  Q 42.60 9.96 42.64 9.55
  L 42.67 9.26
  Q 42.69 9.04 42.47 8.99
  C 35.71 7.57 36.63 17.71 42.66 15.12
  Q 42.74 15.09 42.73 15.00
  L 42.68 14.71
  Q 42.64 14.46 42.39 14.50
  C 40.18 14.80 37.95 14.07 38.96 11.31
  A 2.49 2.47 3.4 0 1 40.75 9.74"
/>
<path stroke="#696969" vector-effect="non-scaling-stroke" d="
  M 76.9498 9.1182
  A 0.40 0.40 0.0 0 0 76.5484 8.7196
  L 76.2884 8.7205
  A 0.40 0.40 0.0 0 0 75.8898 9.1219
  L 75.9102 14.9618
  A 0.40 0.40 0.0 0 0 76.3116 15.3604
  L 76.5716 15.3595
  A 0.40 0.40 0.0 0 0 76.9702 14.9581
  L 76.9498 9.1182"
/>
<path stroke="#696969" vector-effect="non-scaling-stroke" d="
  M 88.26 10.77
  L 87.75 10.66
  Q 87.13 10.52 86.60 10.87
  Q 84.82 12.05 85.46 14.10
  A 2.00 2.00 0.0 0 0 87.70 15.48
  L 89.33 15.21
  Q 90.01 15.10 89.99 14.41
  L 89.87 9.01
  Q 89.86 8.78 89.62 8.78
  L 89.18 8.78
  Q 88.73 8.78 88.77 9.23
  L 88.86 10.24
  Q 88.92 10.91 88.26 10.77"
/>
<path stroke="#696969" vector-effect="non-scaling-stroke" d="
  M 56.00 11.64
  Q 56.22 11.76 56.48 11.71
  Q 56.70 11.67 56.77 11.46
  Q 56.83 11.28 56.81 11.11
  Q 56.75 10.75 56.39 10.69
  Q 55.17 10.50 54.29 11.32
  A 1.00 1.00 0.0 0 0 54.66 13.00
  Q 55.63 13.33 55.77 14.41
  Q 55.88 15.30 55.10 14.85
  L 54.63 14.58
  Q 54.39 14.44 54.16 14.60
  Q 53.65 14.97 54.97 15.49
  A 1.23 1.18 48.7 0 0 55.68 15.55
  Q 57.37 15.19 56.99 13.65
  Q 56.86 13.07 56.27 12.96
  Q 55.44 12.81 55.38 12.04
  A 0.42 0.42 0.0 0 1 56.00 11.64"
/>
<path stroke="#696969" vector-effect="non-scaling-stroke" d="
  M 74.52 13.21
  Q 74.78 13.05 74.91 12.79
  A 0.93 0.92 41.6 0 0 74.85 11.86
  Q 73.72 10.17 71.91 10.90
  A 1.62 1.60 82.9 0 0 70.91 12.20
  Q 70.46 15.91 73.69 15.61
  A 0.79 0.78 63.9 0 0 74.14 14.26
  Q 74.09 14.21 74.08 14.15
  Q 73.98 13.53 74.52 13.21"
/>
<path stroke="#696969" vector-effect="non-scaling-stroke" d="
  M 82.74 13.10
  A 2.46 2.46 0.0 0 0 80.28 10.64
  A 2.46 2.46 0.0 0 0 77.82 13.10
  A 2.46 2.46 0.0 0 0 80.28 15.56
  A 2.46 2.46 0.0 0 0 82.74 13.10"
/>
<path stroke="#696969" vector-effect="non-scaling-stroke" d="
  M 94.45 13.29
  Q 94.70 13.31 94.91 13.00
  Q 95.13 12.68 95.05 12.30
  Q 94.85 11.30 93.84 10.81
  A 1.88 1.88 0.0 0 0 91.35 11.66
  Q 89.91 14.52 92.91 15.78
  A 1.15 1.15 0.0 0 0 94.47 14.44
  Q 94.37 14.01 94.21 13.60
  Q 94.08 13.25 94.45 13.29"
/>
<path stroke="#7f7f7f" vector-effect="non-scaling-stroke" d="
  M 48.21 13.09
  A 2.39 2.39 0.0 0 0 45.82 10.70
  A 2.39 2.39 0.0 0 0 43.43 13.09
  A 2.39 2.39 0.0 0 0 45.82 15.48
  A 2.39 2.39 0.0 0 0 48.21 13.09"
/>
<path stroke="#7f7f7f" vector-effect="non-scaling-stroke" d="
  M 52.13 12.27
  Q 52.41 13.48 52.21 14.89
  Q 52.17 15.19 52.46 15.27
  L 52.72 15.33
  Q 52.87 15.37 52.92 15.23
  Q 53.55 13.23 52.84 11.29
  A 0.87 0.86 -12.8 0 0 51.95 10.73
  L 49.88 10.91
  Q 49.23 10.96 49.24 11.61
  L 49.32 15.26
  A 0.41 0.40 -44.7 0 0 50.13 15.26
  L 50.26 12.13
  A 0.62 0.61 -1.0 0 1 50.83 11.54
  L 51.10 11.51
  Q 51.94 11.44 52.13 12.27"
/>
<path stroke="#696969" vector-effect="non-scaling-stroke" d="
  M 58.51 15.41
  L 58.81 15.39
  Q 59.01 15.38 59.01 15.17
  L 59.05 11.32
  Q 59.05 11.20 59.02 11.08
  Q 58.91 10.59 58.32 11.08
  A 0.73 0.70 71.0 0 0 58.07 11.63
  L 58.07 14.99
  A 0.42 0.42 0.0 0 0 58.51 15.41"
/>
<path stroke="#696969" vector-effect="non-scaling-stroke" d="
  M 63.27 15.96
  Q 63.10 16.27 62.83 16.48
  A 1.39 1.35 -53.1 0 1 61.54 16.68
  Q 61.11 16.52 60.71 16.62
  Q 59.92 16.83 60.63 17.23
  C 62.52 18.31 64.65 17.03 64.54 14.80
  Q 64.46 13.02 64.52 11.52
  Q 64.54 10.94 63.97 10.86
  Q 63.02 10.72 62.11 10.68
  C 58.97 10.56 59.42 16.61 62.73 15.35
  Q 63.82 14.93 63.27 15.96"
/>
<path stroke="#696969" vector-effect="non-scaling-stroke" d="
  M 68.36 14.22
  Q 67.65 15.12 67.16 14.08
  Q 66.66 13.02 66.73 11.14
  Q 66.75 10.80 66.41 10.80
  L 66.05 10.80
  Q 65.83 10.79 65.81 11.01
  Q 65.57 12.86 65.95 14.64
  Q 66.17 15.66 67.20 15.53
  L 69.40 15.26
  Q 69.99 15.19 69.96 14.60
  L 69.82 11.18
  Q 69.80 10.80 69.43 10.80
  L 69.07 10.80
  Q 68.53 10.80 68.66 11.31
  Q 69.15 13.21 68.36 14.22"
/>
<path stroke="#7f7f7f" vector-effect="non-scaling-stroke" d="
  M 92.53 22.76
  Q 92.24 22.70 92.02 23.42
  Q 91.82 24.05 92.42 24.33
  L 92.77 24.49
  Q 93.26 24.73 93.26 25.27
  L 93.24 30.14
  Q 93.24 30.79 93.89 30.76
  L 94.54 30.73
  A 0.76 0.75 88.0 0 0 95.25 29.96
  L 95.16 24.83
  Q 95.15 24.44 95.54 24.43
  L 97.42 24.38
  A 0.54 0.54 0.0 0 1 97.98 24.92
  L 97.94 28.71
  A 2.13 2.13 0.0 0 0 99.15 30.66
  Q 100.55 31.34 101.71 30.50
  Q 102.13 30.20 101.90 29.74
  Q 101.61 29.14 100.89 29.29
  A 0.84 0.83 83.7 0 1 99.89 28.48
  L 99.84 25.03
  Q 99.83 24.40 100.47 24.38
  L 101.48 24.34
  A 0.40 0.40 0.0 0 0 101.87 23.89
  L 101.80 23.25
  Q 101.74 22.76 101.25 22.77
  L 100.45 22.77
  A 0.57 0.56 -0.0 0 1 99.87 22.20
  L 99.89 21.18
  A 0.55 0.54 -84.5 0 0 99.44 20.63
  C 98.60 20.49 97.88 21.23 97.96 22.08
  Q 98.03 22.83 97.28 22.80
  L 95.73 22.74
  A 0.71 0.70 -88.0 0 1 95.05 22.00
  Q 95.10 21.15 95.73 20.64
  Q 96.20 20.26 96.76 20.49
  A 0.45 0.45 0.0 0 0 97.38 19.98
  L 97.27 19.43
  Q 97.15 18.82 96.52 18.82
  Q 93.22 18.84 93.24 22.18
  Q 93.24 22.91 92.53 22.76"
/>
<path stroke="#7f7f7f" vector-effect="non-scaling-stroke" d="
  M 54.52 20.51
  A 1.11 1.11 0.0 0 0 53.41 19.40
  A 1.11 1.11 0.0 0 0 52.30 20.51
  A 1.11 1.11 0.0 0 0 53.41 21.62
  A 1.11 1.11 0.0 0 0 54.52 20.51"
/>
<path stroke="#7f7f7f" vector-effect="non-scaling-stroke" d="
  M 48.73 23.31
  L 48.65 30.10
  Q 48.64 30.72 49.26 30.73
  L 49.81 30.74
  A 0.80 0.80 0.0 0 0 50.63 29.94
  L 50.63 20.31
  Q 50.63 19.73 50.05 19.72
  L 48.52 19.70
  Q 47.94 19.69 47.72 20.23
  L 44.86 27.08
  Q 44.51 27.92 44.18 27.07
  L 41.50 20.24
  Q 41.30 19.71 40.73 19.71
  L 39.14 19.71
  Q 38.49 19.71 38.49 20.36
  L 38.49 30.01
  Q 38.49 30.79 39.26 30.75
  L 39.80 30.72
  Q 40.34 30.69 40.32 30.15
  Q 40.15 26.72 40.39 23.35
  Q 40.46 22.28 40.86 23.28
  L 43.11 28.94
  Q 44.59 32.68 45.94 28.89
  Q 47.01 25.90 48.25 23.20
  Q 48.74 22.13 48.73 23.31"
/>
<path stroke="#005278" vector-effect="non-scaling-stroke" d="
  M 19.4687 20.7195
  A 0.32 0.32 0.0 0 0 19.1493 20.3990
  L 8.8893 20.3811
  A 0.32 0.32 0.0 0 0 8.5688 20.7005
  L 8.5513 30.7205
  A 0.32 0.32 0.0 0 0 8.8707 31.0410
  L 19.1307 31.0589
  A 0.32 0.32 0.0 0 0 19.4512 30.7395
  L 19.4687 20.7195"
/>
<path stroke="#805c00" vector-effect="non-scaling-stroke" d="
  M 31.5287 20.7496
  A 0.34 0.34 0.0 0 0 31.1893 20.4090
  L 20.8893 20.3910
  A 0.34 0.34 0.0 0 0 20.5487 20.7304
  L 20.5313 30.7104
  A 0.34 0.34 0.0 0 0 20.8707 31.0510
  L 31.1707 31.0690
  A 0.34 0.34 0.0 0 0 31.5113 30.7296
  L 31.5287 20.7496"
/>
<path stroke="#7f7f7f" vector-effect="non-scaling-stroke" d="
  M 54.32 23.18
  A 0.40 0.40 0.0 0 0 53.92 22.78
  L 52.86 22.78
  A 0.40 0.40 0.0 0 0 52.46 23.18
  L 52.46 30.32
  A 0.40 0.40 0.0 0 0 52.86 30.72
  L 53.92 30.72
  A 0.40 0.40 0.0 0 0 54.32 30.32
  L 54.32 23.18"
/>
<path stroke="#7f7f7f" vector-effect="non-scaling-stroke" d="
  M 61.32 28.97
  C 56.11 31.28 56.81 22.30 61.15 24.52
  Q 61.85 24.88 61.91 24.09
  L 61.94 23.71
  Q 62.01 22.80 61.10 22.70
  Q 56.27 22.18 55.77 26.23
  Q 55.17 31.17 60.77 30.90
  A 1.22 1.22 0.0 0 0 61.87 30.06
  Q 61.98 29.74 61.98 29.39
  Q 61.98 28.68 61.32 28.97"
/>
<path stroke="#7f7f7f" vector-effect="non-scaling-stroke" d="
  M 65.04 23.15
  Q 64.60 22.57 63.91 22.73
  Q 63.33 22.86 63.33 23.45
  L 63.33 30.20
  A 0.57 0.57 0.0 0 0 63.95 30.77
  L 64.76 30.71
  Q 65.34 30.67 65.30 30.09
  Q 65.17 27.99 65.32 26.03
  Q 65.45 24.28 67.23 24.52
  A 0.71 0.71 0.0 0 0 68.02 23.93
  L 68.09 23.50
  Q 68.22 22.66 67.36 22.66
  Q 66.46 22.67 65.79 23.24
  Q 65.37 23.58 65.04 23.15"
/>
<path stroke="#7f7f7f" vector-effect="non-scaling-stroke" d="
  M 76.47 26.78
  A 4.22 4.22 0.0 0 0 72.25 22.56
  A 4.22 4.22 0.0 0 0 68.03 26.78
  A 4.22 4.22 0.0 0 0 72.25 31.00
  A 4.22 4.22 0.0 0 0 76.47 26.78"
/>
<path stroke="#7f7f7f" vector-effect="non-scaling-stroke" d="
  M 80.10 29.34
  Q 78.95 29.51 77.87 28.94
  Q 77.31 28.65 77.26 29.28
  L 77.22 29.73
  Q 77.16 30.44 77.84 30.66
  Q 79.96 31.38 81.55 30.37
  A 2.24 2.24 0.0 0 0 81.32 26.46
  L 79.75 25.71
  Q 79.30 25.49 79.23 25.00
  Q 79.20 24.71 79.38 24.50
  Q 79.70 24.14 80.18 24.16
  Q 81.05 24.19 81.82 24.50
  Q 82.25 24.68 82.25 24.21
  L 82.26 23.46
  Q 82.26 22.97 81.80 22.82
  Q 80.16 22.28 78.58 23.07
  C 76.77 23.97 76.88 26.28 78.59 27.11
  Q 79.49 27.55 80.34 28.02
  A 0.71 0.71 0.0 0 1 80.10 29.34"
/>
<path stroke="#7f7f7f" vector-effect="non-scaling-stroke" d="
  M 91.83 26.77
  A 4.22 4.22 0.0 0 0 87.61 22.55
  A 4.22 4.22 0.0 0 0 83.39 26.77
  A 4.22 4.22 0.0 0 0 87.61 30.99
  A 4.22 4.22 0.0 0 0 91.83 26.77"
/>
<path stroke="#696969" vector-effect="non-scaling-stroke" d="
  M 87.5468 14.6121
  A 1.49 1.18 95.9 0 0 88.8737 13.2513
  A 1.49 1.18 95.9 0 0 87.8532 11.6479
  A 1.49 1.18 95.9 0 0 86.5263 13.0087
  A 1.49 1.18 95.9 0 0 87.5468 14.6121"
/>
<path stroke="#696969" vector-effect="non-scaling-stroke" d="
  M 73.43 12.82
  Q 73.57 12.17 73.17 11.63
  Q 72.69 10.99 72.50 11.76
  Q 72.11 13.39 72.54 14.74
  Q 72.77 15.48 73.34 14.95
  Q 73.97 14.35 73.54 13.58
  Q 73.33 13.22 73.43 12.82"
/>
<path stroke="#696969" vector-effect="non-scaling-stroke" d="
  M 80.2173 14.6500
  A 1.56 1.29 90.1 0 0 81.5100 13.0923
  A 1.56 1.29 90.1 0 0 80.2227 11.5300
  A 1.56 1.29 90.1 0 0 78.9300 13.0877
  A 1.56 1.29 90.1 0 0 80.2173 14.6500"
/>
<path stroke="#696969" vector-effect="non-scaling-stroke" d="
  M 93.49 13.25
  Q 93.81 12.42 93.39 11.64
  Q 92.99 10.88 92.65 11.67
  Q 91.90 13.39 92.72 14.68
  Q 93.17 15.37 93.60 14.67
  Q 93.93 14.16 93.59 13.78
  Q 93.38 13.55 93.49 13.25"
/>
<path stroke="#7f7f7f" vector-effect="non-scaling-stroke" d="
  M 45.9552 14.7466
  A 1.63 1.41 86.3 0 0 47.2571 13.0290
  A 1.63 1.41 86.3 0 0 45.7448 11.4934
  A 1.63 1.41 86.3 0 0 44.4429 13.2110
  A 1.63 1.41 86.3 0 0 45.9552 14.7466"
/>
<path stroke="#696969" vector-effect="non-scaling-stroke" d="
  M 62.1258 14.6111
  A 1.52 1.22 96.2 0 0 63.5029 13.2318
  A 1.52 1.22 96.2 0 0 62.4542 11.5889
  A 1.52 1.22 96.2 0 0 61.0771 12.9682
  A 1.52 1.22 96.2 0 0 62.1258 14.6111"
/>
<path stroke="#7f7f7f" vector-effect="non-scaling-stroke" d="
  M 72.2336 29.3997
  A 2.61 2.20 90.8 0 0 74.4698 26.8207
  A 2.61 2.20 90.8 0 0 72.3064 24.1803
  A 2.61 2.20 90.8 0 0 70.0702 26.7593
  A 2.61 2.20 90.8 0 0 72.2336 29.3997"
/>
<path stroke="#7f7f7f" vector-effect="non-scaling-stroke" d="
  M 89.7119 26.1474
  A 1.94 1.94 0.0 0 0 87.7152 24.2658
  L 87.3553 24.2764
  A 1.94 1.94 0.0 0 0 85.4737 26.2731
  L 85.5081 27.4326
  A 1.94 1.94 0.0 0 0 87.5048 29.3142
  L 87.8647 29.3036
  A 1.94 1.94 0.0 0 0 89.7463 27.3069
  L 89.7119 26.1474"
/>
</g>
<path fill="#d1d1d1" d="
  M 0.00 0.00
  L 111.00 0.00
  L 111.00 40.00
  L 0.00 40.00
  L 0.00 0.00
  Z
  M 109.98 1.53
  A 0.51 0.51 0.0 0 0 109.47 1.02
  L 1.51 1.02
  A 0.51 0.51 0.0 0 0 1.00 1.53
  L 1.00 38.49
  A 0.51 0.51 0.0 0 0 1.51 39.00
  L 109.47 39.00
  A 0.51 0.51 0.0 0 0 109.98 38.49
  L 109.98 1.53
  Z"
/>
<path fill="#000000" d="
  M 109.98 38.49
  A 0.51 0.51 0.0 0 1 109.47 39.00
  L 1.51 39.00
  A 0.51 0.51 0.0 0 1 1.00 38.49
  L 1.00 1.53
  A 0.51 0.51 0.0 0 1 1.51 1.02
  L 109.47 1.02
  A 0.51 0.51 0.0 0 1 109.98 1.53
  L 109.98 38.49
  Z
  M 19.43 8.91
  A 0.42 0.42 0.0 0 0 19.01 8.49
  L 8.99 8.49
  A 0.42 0.42 0.0 0 0 8.57 8.91
  L 8.57 18.83
  A 0.42 0.42 0.0 0 0 8.99 19.25
  L 19.01 19.25
  A 0.42 0.42 0.0 0 0 19.43 18.83
  L 19.43 8.91
  Z
  M 31.5188 8.8595
  A 0.36 0.36 0.0 0 0 31.1594 8.4989
  L 20.9594 8.4811
  A 0.36 0.36 0.0 0 0 20.5988 8.8405
  L 20.5812 18.8805
  A 0.36 0.36 0.0 0 0 20.9406 19.2411
  L 31.1406 19.2589
  A 0.36 0.36 0.0 0 0 31.5012 18.8995
  L 31.5188 8.8595
  Z
  M 58.2227 9.7769
  A 0.88 0.44 136.4 0 0 59.1634 9.4886
  A 0.88 0.44 136.4 0 0 59.4973 8.5631
  A 0.88 0.44 136.4 0 0 58.5566 8.8514
  A 0.88 0.44 136.4 0 0 58.2227 9.7769
  Z
  M 40.75 9.74
  Q 41.23 9.64 42.21 9.86
  Q 42.60 9.96 42.64 9.55
  L 42.67 9.26
  Q 42.69 9.04 42.47 8.99
  C 35.71 7.57 36.63 17.71 42.66 15.12
  Q 42.74 15.09 42.73 15.00
  L 42.68 14.71
  Q 42.64 14.46 42.39 14.50
  C 40.18 14.80 37.95 14.07 38.96 11.31
  A 2.49 2.47 3.4 0 1 40.75 9.74
  Z
  M 76.9498 9.1182
  A 0.40 0.40 0.0 0 0 76.5484 8.7196
  L 76.2884 8.7205
  A 0.40 0.40 0.0 0 0 75.8898 9.1219
  L 75.9102 14.9618
  A 0.40 0.40 0.0 0 0 76.3116 15.3604
  L 76.5716 15.3595
  A 0.40 0.40 0.0 0 0 76.9702 14.9581
  L 76.9498 9.1182
  Z
  M 88.26 10.77
  L 87.75 10.66
  Q 87.13 10.52 86.60 10.87
  Q 84.82 12.05 85.46 14.10
  A 2.00 2.00 0.0 0 0 87.70 15.48
  L 89.33 15.21
  Q 90.01 15.10 89.99 14.41
  L 89.87 9.01
  Q 89.86 8.78 89.62 8.78
  L 89.18 8.78
  Q 88.73 8.78 88.77 9.23
  L 88.86 10.24
  Q 88.92 10.91 88.26 10.77
  Z
  M 56.00 11.64
  Q 56.22 11.76 56.48 11.71
  Q 56.70 11.67 56.77 11.46
  Q 56.83 11.28 56.81 11.11
  Q 56.75 10.75 56.39 10.69
  Q 55.17 10.50 54.29 11.32
  A 1.00 1.00 0.0 0 0 54.66 13.00
  Q 55.63 13.33 55.77 14.41
  Q 55.88 15.30 55.10 14.85
  L 54.63 14.58
  Q 54.39 14.44 54.16 14.60
  Q 53.65 14.97 54.97 15.49
  A 1.23 1.18 48.7 0 0 55.68 15.55
  Q 57.37 15.19 56.99 13.65
  Q 56.86 13.07 56.27 12.96
  Q 55.44 12.81 55.38 12.04
  A 0.42 0.42 0.0 0 1 56.00 11.64
  Z
  M 74.52 13.21
  Q 74.78 13.05 74.91 12.79
  A 0.93 0.92 41.6 0 0 74.85 11.86
  Q 73.72 10.17 71.91 10.90
  A 1.62 1.60 82.9 0 0 70.91 12.20
  Q 70.46 15.91 73.69 15.61
  A 0.79 0.78 63.9 0 0 74.14 14.26
  Q 74.09 14.21 74.08 14.15
  Q 73.98 13.53 74.52 13.21
  Z
  M 82.74 13.10
  A 2.46 2.46 0.0 0 0 80.28 10.64
  A 2.46 2.46 0.0 0 0 77.82 13.10
  A 2.46 2.46 0.0 0 0 80.28 15.56
  A 2.46 2.46 0.0 0 0 82.74 13.10
  Z
  M 94.45 13.29
  Q 94.70 13.31 94.91 13.00
  Q 95.13 12.68 95.05 12.30
  Q 94.85 11.30 93.84 10.81
  A 1.88 1.88 0.0 0 0 91.35 11.66
  Q 89.91 14.52 92.91 15.78
  A 1.15 1.15 0.0 0 0 94.47 14.44
  Q 94.37 14.01 94.21 13.60
  Q 94.08 13.25 94.45 13.29
  Z
  M 48.21 13.09
  A 2.39 2.39 0.0 0 0 45.82 10.70
  A 2.39 2.39 0.0 0 0 43.43 13.09
  A 2.39 2.39 0.0 0 0 45.82 15.48
  A 2.39 2.39 0.0 0 0 48.21 13.09
  Z
  M 52.13 12.27
  Q 52.41 13.48 52.21 14.89
  Q 52.17 15.19 52.46 15.27
  L 52.72 15.33
  Q 52.87 15.37 52.92 15.23
  Q 53.55 13.23 52.84 11.29
  A 0.87 0.86 -12.8 0 0 51.95 10.73
  L 49.88 10.91
  Q 49.23 10.96 49.24 11.61
  L 49.32 15.26
  A 0.41 0.40 -44.7 0 0 50.13 15.26
  L 50.26 12.13
  A 0.62 0.61 -1.0 0 1 50.83 11.54
  L 51.10 11.51
  Q 51.94 11.44 52.13 12.27
  Z
  M 58.51 15.41
  L 58.81 15.39
  Q 59.01 15.38 59.01 15.17
  L 59.05 11.32
  Q 59.05 11.20 59.02 11.08
  Q 58.91 10.59 58.32 11.08
  A 0.73 0.70 71.0 0 0 58.07 11.63
  L 58.07 14.99
  A 0.42 0.42 0.0 0 0 58.51 15.41
  Z
  M 63.27 15.96
  Q 63.10 16.27 62.83 16.48
  A 1.39 1.35 -53.1 0 1 61.54 16.68
  Q 61.11 16.52 60.71 16.62
  Q 59.92 16.83 60.63 17.23
  C 62.52 18.31 64.65 17.03 64.54 14.80
  Q 64.46 13.02 64.52 11.52
  Q 64.54 10.94 63.97 10.86
  Q 63.02 10.72 62.11 10.68
  C 58.97 10.56 59.42 16.61 62.73 15.35
  Q 63.82 14.93 63.27 15.96
  Z
  M 68.36 14.22
  Q 67.65 15.12 67.16 14.08
  Q 66.66 13.02 66.73 11.14
  Q 66.75 10.80 66.41 10.80
  L 66.05 10.80
  Q 65.83 10.79 65.81 11.01
  Q 65.57 12.86 65.95 14.64
  Q 66.17 15.66 67.20 15.53
  L 69.40 15.26
  Q 69.99 15.19 69.96 14.60
  L 69.82 11.18
  Q 69.80 10.80 69.43 10.80
  L 69.07 10.80
  Q 68.53 10.80 68.66 11.31
  Q 69.15 13.21 68.36 14.22
  Z
  M 92.53 22.76
  Q 92.24 22.70 92.02 23.42
  Q 91.82 24.05 92.42 24.33
  L 92.77 24.49
  Q 93.26 24.73 93.26 25.27
  L 93.24 30.14
  Q 93.24 30.79 93.89 30.76
  L 94.54 30.73
  A 0.76 0.75 88.0 0 0 95.25 29.96
  L 95.16 24.83
  Q 95.15 24.44 95.54 24.43
  L 97.42 24.38
  A 0.54 0.54 0.0 0 1 97.98 24.92
  L 97.94 28.71
  A 2.13 2.13 0.0 0 0 99.15 30.66
  Q 100.55 31.34 101.71 30.50
  Q 102.13 30.20 101.90 29.74
  Q 101.61 29.14 100.89 29.29
  A 0.84 0.83 83.7 0 1 99.89 28.48
  L 99.84 25.03
  Q 99.83 24.40 100.47 24.38
  L 101.48 24.34
  A 0.40 0.40 0.0 0 0 101.87 23.89
  L 101.80 23.25
  Q 101.74 22.76 101.25 22.77
  L 100.45 22.77
  A 0.57 0.56 -0.0 0 1 99.87 22.20
  L 99.89 21.18
  A 0.55 0.54 -84.5 0 0 99.44 20.63
  C 98.60 20.49 97.88 21.23 97.96 22.08
  Q 98.03 22.83 97.28 22.80
  L 95.73 22.74
  A 0.71 0.70 -88.0 0 1 95.05 22.00
  Q 95.10 21.15 95.73 20.64
  Q 96.20 20.26 96.76 20.49
  A 0.45 0.45 0.0 0 0 97.38 19.98
  L 97.27 19.43
  Q 97.15 18.82 96.52 18.82
  Q 93.22 18.84 93.24 22.18
  Q 93.24 22.91 92.53 22.76
  Z
  M 54.52 20.51
  A 1.11 1.11 0.0 0 0 53.41 19.40
  A 1.11 1.11 0.0 0 0 52.30 20.51
  A 1.11 1.11 0.0 0 0 53.41 21.62
  A 1.11 1.11 0.0 0 0 54.52 20.51
  Z
  M 48.73 23.31
  L 48.65 30.10
  Q 48.64 30.72 49.26 30.73
  L 49.81 30.74
  A 0.80 0.80 0.0 0 0 50.63 29.94
  L 50.63 20.31
  Q 50.63 19.73 50.05 19.72
  L 48.52 19.70
  Q 47.94 19.69 47.72 20.23
  L 44.86 27.08
  Q 44.51 27.92 44.18 27.07
  L 41.50 20.24
  Q 41.30 19.71 40.73 19.71
  L 39.14 19.71
  Q 38.49 19.71 38.49 20.36
  L 38.49 30.01
  Q 38.49 30.79 39.26 30.75
  L 39.80 30.72
  Q 40.34 30.69 40.32 30.15
  Q 40.15 26.72 40.39 23.35
  Q 40.46 22.28 40.86 23.28
  L 43.11 28.94
  Q 44.59 32.68 45.94 28.89
  Q 47.01 25.90 48.25 23.20
  Q 48.74 22.13 48.73 23.31
  Z
  M 19.4687 20.7195
  A 0.32 0.32 0.0 0 0 19.1493 20.3990
  L 8.8893 20.3811
  A 0.32 0.32 0.0 0 0 8.5688 20.7005
  L 8.5513 30.7205
  A 0.32 0.32 0.0 0 0 8.8707 31.0410
  L 19.1307 31.0589
  A 0.32 0.32 0.0 0 0 19.4512 30.7395
  L 19.4687 20.7195
  Z
  M 31.5287 20.7496
  A 0.34 0.34 0.0 0 0 31.1893 20.4090
  L 20.8893 20.3910
  A 0.34 0.34 0.0 0 0 20.5487 20.7304
  L 20.5313 30.7104
  A 0.34 0.34 0.0 0 0 20.8707 31.0510
  L 31.1707 31.0690
  A 0.34 0.34 0.0 0 0 31.5113 30.7296
  L 31.5287 20.7496
  Z
  M 54.32 23.18
  A 0.40 0.40 0.0 0 0 53.92 22.78
  L 52.86 22.78
  A 0.40 0.40 0.0 0 0 52.46 23.18
  L 52.46 30.32
  A 0.40 0.40 0.0 0 0 52.86 30.72
  L 53.92 30.72
  A 0.40 0.40 0.0 0 0 54.32 30.32
  L 54.32 23.18
  Z
  M 61.32 28.97
  C 56.11 31.28 56.81 22.30 61.15 24.52
  Q 61.85 24.88 61.91 24.09
  L 61.94 23.71
  Q 62.01 22.80 61.10 22.70
  Q 56.27 22.18 55.77 26.23
  Q 55.17 31.17 60.77 30.90
  A 1.22 1.22 0.0 0 0 61.87 30.06
  Q 61.98 29.74 61.98 29.39
  Q 61.98 28.68 61.32 28.97
  Z
  M 65.04 23.15
  Q 64.60 22.57 63.91 22.73
  Q 63.33 22.86 63.33 23.45
  L 63.33 30.20
  A 0.57 0.57 0.0 0 0 63.95 30.77
  L 64.76 30.71
  Q 65.34 30.67 65.30 30.09
  Q 65.17 27.99 65.32 26.03
  Q 65.45 24.28 67.23 24.52
  A 0.71 0.71 0.0 0 0 68.02 23.93
  L 68.09 23.50
  Q 68.22 22.66 67.36 22.66
  Q 66.46 22.67 65.79 23.24
  Q 65.37 23.58 65.04 23.15
  Z
  M 76.47 26.78
  A 4.22 4.22 0.0 0 0 72.25 22.56
  A 4.22 4.22 0.0 0 0 68.03 26.78
  A 4.22 4.22 0.0 0 0 72.25 31.00
  A 4.22 4.22 0.0 0 0 76.47 26.78
  Z
  M 80.10 29.34
  Q 78.95 29.51 77.87 28.94
  Q 77.31 28.65 77.26 29.28
  L 77.22 29.73
  Q 77.16 30.44 77.84 30.66
  Q 79.96 31.38 81.55 30.37
  A 2.24 2.24 0.0 0 0 81.32 26.46
  L 79.75 25.71
  Q 79.30 25.49 79.23 25.00
  Q 79.20 24.71 79.38 24.50
  Q 79.70 24.14 80.18 24.16
  Q 81.05 24.19 81.82 24.50
  Q 82.25 24.68 82.25 24.21
  L 82.26 23.46
  Q 82.26 22.97 81.80 22.82
  Q 80.16 22.28 78.58 23.07
  C 76.77 23.97 76.88 26.28 78.59 27.11
  Q 79.49 27.55 80.34 28.02
  A 0.71 0.71 0.0 0 1 80.10 29.34
  Z
  M 91.83 26.77
  A 4.22 4.22 0.0 0 0 87.61 22.55
  A 4.22 4.22 0.0 0 0 83.39 26.77
  A 4.22 4.22 0.0 0 0 87.61 30.99
  A 4.22 4.22 0.0 0 0 91.83 26.77
  Z"
/>
<rect fill="#f25021" x="8.57" y="8.49" width="10.86" height="10.76" rx="0.42"/>
<rect fill="#7db900" x="-5.46" y="-5.38" transform="translate(26.05,13.87) rotate(0.1)" width="10.92" height="10.76" rx="0.36"/>
<ellipse fill="#d1d1d1" cx="0.00" cy="0.00" transform="translate(58.86,9.17) rotate(136.4)" rx="0.88" ry="0.44"/>
<path fill="#fefefe" d="
  M 40.75 9.74
  A 2.49 2.47 3.4 0 0 38.96 11.31
  C 37.95 14.07 40.18 14.80 42.39 14.50
  Q 42.64 14.46 42.68 14.71
  L 42.73 15.00
  Q 42.74 15.09 42.66 15.12
  C 36.63 17.71 35.71 7.57 42.47 8.99
  Q 42.69 9.04 42.67 9.26
  L 42.64 9.55
  Q 42.60 9.96 42.21 9.86
  Q 41.23 9.64 40.75 9.74
  Z"
/>
<rect fill="#d1d1d1" x="-0.53" y="-3.32" transform="translate(76.43,12.04) rotate(-0.2)" width="1.06" height="6.64" rx="0.40"/>
<path fill="#d1d1d1" d="
  M 88.86 10.24
  L 88.77 9.23
  Q 88.73 8.78 89.18 8.78
  L 89.62 8.78
  Q 89.86 8.78 89.87 9.01
  L 89.99 14.41
  Q 90.01 15.10 89.33 15.21
  L 87.70 15.48
  A 2.00 2.00 0.0 0 1 85.46 14.10
  Q 84.82 12.05 86.60 10.87
  Q 87.13 10.52 87.75 10.66
  L 88.26 10.77
  Q 88.92 10.91 88.86 10.24
  Z
  M 87.5468 14.6121
  A 1.49 1.18 95.9 0 0 88.8737 13.2513
  A 1.49 1.18 95.9 0 0 87.8532 11.6479
  A 1.49 1.18 95.9 0 0 86.5263 13.0087
  A 1.49 1.18 95.9 0 0 87.5468 14.6121
  Z"
/>
<path fill="#d1d1d1" d="
  M 55.38 12.04
  Q 55.44 12.81 56.27 12.96
  Q 56.86 13.07 56.99 13.65
  Q 57.37 15.19 55.68 15.55
  A 1.23 1.18 48.7 0 1 54.97 15.49
  Q 53.65 14.97 54.16 14.60
  Q 54.39 14.44 54.63 14.58
  L 55.10 14.85
  Q 55.88 15.30 55.77 14.41
  Q 55.63 13.33 54.66 13.00
  A 1.00 1.00 0.0 0 1 54.29 11.32
  Q 55.17 10.50 56.39 10.69
  Q 56.75 10.75 56.81 11.11
  Q 56.83 11.28 56.77 11.46
  Q 56.70 11.67 56.48 11.71
  Q 56.22 11.76 56.00 11.64
  A 0.42 0.42 0.0 0 0 55.38 12.04
  Z"
/>
<path fill="#d1d1d1" d="
  M 74.08 14.15
  Q 74.09 14.21 74.14 14.26
  A 0.79 0.78 63.9 0 1 73.69 15.61
  Q 70.46 15.91 70.91 12.20
  A 1.62 1.60 82.9 0 1 71.91 10.90
  Q 73.72 10.17 74.85 11.86
  A 0.93 0.92 41.6 0 1 74.91 12.79
  Q 74.78 13.05 74.52 13.21
  Q 73.98 13.53 74.08 14.15
  Z
  M 73.43 12.82
  Q 73.57 12.17 73.17 11.63
  Q 72.69 10.99 72.50 11.76
  Q 72.11 13.39 72.54 14.74
  Q 72.77 15.48 73.34 14.95
  Q 73.97 14.35 73.54 13.58
  Q 73.33 13.22 73.43 12.82
  Z"
/>
<path fill="#d1d1d1" d="
  M 82.74 13.10
  A 2.46 2.46 0.0 0 1 80.28 15.56
  A 2.46 2.46 0.0 0 1 77.82 13.10
  A 2.46 2.46 0.0 0 1 80.28 10.64
  A 2.46 2.46 0.0 0 1 82.74 13.10
  Z
  M 80.2173 14.6500
  A 1.56 1.29 90.1 0 0 81.5100 13.0923
  A 1.56 1.29 90.1 0 0 80.2227 11.5300
  A 1.56 1.29 90.1 0 0 78.9300 13.0877
  A 1.56 1.29 90.1 0 0 80.2173 14.6500
  Z"
/>
<path fill="#d1d1d1" d="
  M 94.21 13.60
  Q 94.37 14.01 94.47 14.44
  A 1.15 1.15 0.0 0 1 92.91 15.78
  Q 89.91 14.52 91.35 11.66
  A 1.88 1.88 0.0 0 1 93.84 10.81
  Q 94.85 11.30 95.05 12.30
  Q 95.13 12.68 94.91 13.00
  Q 94.70 13.31 94.45 13.29
  Q 94.08 13.25 94.21 13.60
  Z
  M 93.49 13.25
  Q 93.81 12.42 93.39 11.64
  Q 92.99 10.88 92.65 11.67
  Q 91.90 13.39 92.72 14.68
  Q 93.17 15.37 93.60 14.67
  Q 93.93 14.16 93.59 13.78
  Q 93.38 13.55 93.49 13.25
  Z"
/>
<path fill="#fefefe" d="
  M 48.21 13.09
  A 2.39 2.39 0.0 0 1 45.82 15.48
  A 2.39 2.39 0.0 0 1 43.43 13.09
  A 2.39 2.39 0.0 0 1 45.82 10.70
  A 2.39 2.39 0.0 0 1 48.21 13.09
  Z
  M 45.9552 14.7466
  A 1.63 1.41 86.3 0 0 47.2571 13.0290
  A 1.63 1.41 86.3 0 0 45.7448 11.4934
  A 1.63 1.41 86.3 0 0 44.4429 13.2110
  A 1.63 1.41 86.3 0 0 45.9552 14.7466
  Z"
/>
<path fill="#fefefe" d="
  M 52.13 12.27
  Q 51.94 11.44 51.10 11.51
  L 50.83 11.54
  A 0.62 0.61 -1.0 0 0 50.26 12.13
  L 50.13 15.26
  A 0.41 0.40 -44.7 0 1 49.32 15.26
  L 49.24 11.61
  Q 49.23 10.96 49.88 10.91
  L 51.95 10.73
  A 0.87 0.86 -12.8 0 1 52.84 11.29
  Q 53.55 13.23 52.92 15.23
  Q 52.87 15.37 52.72 15.33
  L 52.46 15.27
  Q 52.17 15.19 52.21 14.89
  Q 52.41 13.48 52.13 12.27
  Z"
/>
<path fill="#d1d1d1" d="
  M 58.07 14.99
  L 58.07 11.63
  A 0.73 0.70 71.0 0 1 58.32 11.08
  Q 58.91 10.59 59.02 11.08
  Q 59.05 11.20 59.05 11.32
  L 59.01 15.17
  Q 59.01 15.38 58.81 15.39
  L 58.51 15.41
  A 0.42 0.42 0.0 0 1 58.07 14.99
  Z"
/>
<path fill="#d1d1d1" d="
  M 62.73 15.35
  C 59.42 16.61 58.97 10.56 62.11 10.68
  Q 63.02 10.72 63.97 10.86
  Q 64.54 10.94 64.52 11.52
  Q 64.46 13.02 64.54 14.80
  C 64.65 17.03 62.52 18.31 60.63 17.23
  Q 59.92 16.83 60.71 16.62
  Q 61.11 16.52 61.54 16.68
  A 1.39 1.35 -53.1 0 0 62.83 16.48
  Q 63.10 16.27 63.27 15.96
  Q 63.82 14.93 62.73 15.35
  Z
  M 62.1258 14.6111
  A 1.52 1.22 96.2 0 0 63.5029 13.2318
  A 1.52 1.22 96.2 0 0 62.4542 11.5889
  A 1.52 1.22 96.2 0 0 61.0771 12.9682
  A 1.52 1.22 96.2 0 0 62.1258 14.6111
  Z"
/>
<path fill="#d1d1d1" d="
  M 68.36 14.22
  Q 69.15 13.21 68.66 11.31
  Q 68.53 10.80 69.07 10.80
  L 69.43 10.80
  Q 69.80 10.80 69.82 11.18
  L 69.96 14.60
  Q 69.99 15.19 69.40 15.26
  L 67.20 15.53
  Q 66.17 15.66 65.95 14.64
  Q 65.57 12.86 65.81 11.01
  Q 65.83 10.79 66.05 10.80
  L 66.41 10.80
  Q 66.75 10.80 66.73 11.14
  Q 66.66 13.02 67.16 14.08
  Q 67.65 15.12 68.36 14.22
  Z"
/>
<path fill="#000000" d="
  M 73.54 13.58
  Q 73.97 14.35 73.34 14.95
  Q 72.77 15.48 72.54 14.74
  Q 72.11 13.39 72.50 11.76
  Q 72.69 10.99 73.17 11.63
  Q 73.57 12.17 73.43 12.82
  Q 73.33 13.22 73.54 13.58
  Z"
/>
<path fill="#000000" d="
  M 93.59 13.78
  Q 93.93 14.16 93.60 14.67
  Q 93.17 15.37 92.72 14.68
  Q 91.90 13.39 92.65 11.67
  Q 92.99 10.88 93.39 11.64
  Q 93.81 12.42 93.49 13.25
  Q 93.38 13.55 93.59 13.78
  Z"
/>
<ellipse fill="#000000" cx="0.00" cy="0.00" transform="translate(45.85,13.12) rotate(86.3)" rx="1.63" ry="1.41"/>
<ellipse fill="#000000" cx="0.00" cy="0.00" transform="translate(62.29,13.10) rotate(96.2)" rx="1.52" ry="1.22"/>
<ellipse fill="#000000" cx="0.00" cy="0.00" transform="translate(80.22,13.09) rotate(90.1)" rx="1.56" ry="1.29"/>
<ellipse fill="#000000" cx="0.00" cy="0.00" transform="translate(87.70,13.13) rotate(95.9)" rx="1.49" ry="1.18"/>
<path fill="#fefefe" d="
  M 93.24 22.18
  Q 93.22 18.84 96.52 18.82
  Q 97.15 18.82 97.27 19.43
  L 97.38 19.98
  A 0.45 0.45 0.0 0 1 96.76 20.49
  Q 96.20 20.26 95.73 20.64
  Q 95.10 21.15 95.05 22.00
  A 0.71 0.70 -88.0 0 0 95.73 22.74
  L 97.28 22.80
  Q 98.03 22.83 97.96 22.08
  C 97.88 21.23 98.60 20.49 99.44 20.63
  A 0.55 0.54 -84.5 0 1 99.89 21.18
  L 99.87 22.20
  A 0.57 0.56 -0.0 0 0 100.45 22.77
  L 101.25 22.77
  Q 101.74 22.76 101.80 23.25
  L 101.87 23.89
  A 0.40 0.40 0.0 0 1 101.48 24.34
  L 100.47 24.38
  Q 99.83 24.40 99.84 25.03
  L 99.89 28.48
  A 0.84 0.83 83.7 0 0 100.89 29.29
  Q 101.61 29.14 101.90 29.74
  Q 102.13 30.20 101.71 30.50
  Q 100.55 31.34 99.15 30.66
  A 2.13 2.13 0.0 0 1 97.94 28.71
  L 97.98 24.92
  A 0.54 0.54 0.0 0 0 97.42 24.38
  L 95.54 24.43
  Q 95.15 24.44 95.16 24.83
  L 95.25 29.96
  A 0.76 0.75 88.0 0 1 94.54 30.73
  L 93.89 30.76
  Q 93.24 30.79 93.24 30.14
  L 93.26 25.27
  Q 93.26 24.73 92.77 24.49
  L 92.42 24.33
  Q 91.82 24.05 92.02 23.42
  Q 92.24 22.70 92.53 22.76
  Q 93.24 22.91 93.24 22.18
  Z"
/>
<circle fill="#fefefe" cx="53.41" cy="20.51" r="1.11"/>
<path fill="#fefefe" d="
  M 48.25 23.20
  Q 47.01 25.90 45.94 28.89
  Q 44.59 32.68 43.11 28.94
  L 40.86 23.28
  Q 40.46 22.28 40.39 23.35
  Q 40.15 26.72 40.32 30.15
  Q 40.34 30.69 39.80 30.72
  L 39.26 30.75
  Q 38.49 30.79 38.49 30.01
  L 38.49 20.36
  Q 38.49 19.71 39.14 19.71
  L 40.73 19.71
  Q 41.30 19.71 41.50 20.24
  L 44.18 27.07
  Q 44.51 27.92 44.86 27.08
  L 47.72 20.23
  Q 47.94 19.69 48.52 19.70
  L 50.05 19.72
  Q 50.63 19.73 50.63 20.31
  L 50.63 29.94
  A 0.80 0.80 0.0 0 1 49.81 30.74
  L 49.26 30.73
  Q 48.64 30.72 48.65 30.10
  L 48.73 23.31
  Q 48.74 22.13 48.25 23.20
  Z"
/>
<rect fill="#00a4ef" x="-5.45" y="-5.33" transform="translate(14.01,25.72) rotate(0.1)" width="10.90" height="10.66" rx="0.32"/>
<rect fill="#ffb800" x="-5.49" y="-5.33" transform="translate(26.03,25.73) rotate(0.1)" width="10.98" height="10.66" rx="0.34"/>
<rect fill="#fefefe" x="52.46" y="22.78" width="1.86" height="7.94" rx="0.40"/>
<path fill="#fefefe" d="
  M 61.32 28.97
  Q 61.98 28.68 61.98 29.39
  Q 61.98 29.74 61.87 30.06
  A 1.22 1.22 0.0 0 1 60.77 30.90
  Q 55.17 31.17 55.77 26.23
  Q 56.27 22.18 61.10 22.70
  Q 62.01 22.80 61.94 23.71
  L 61.91 24.09
  Q 61.85 24.88 61.15 24.52
  C 56.81 22.30 56.11 31.28 61.32 28.97
  Z"
/>
<path fill="#fefefe" d="
  M 65.79 23.24
  Q 66.46 22.67 67.36 22.66
  Q 68.22 22.66 68.09 23.50
  L 68.02 23.93
  A 0.71 0.71 0.0 0 1 67.23 24.52
  Q 65.45 24.28 65.32 26.03
  Q 65.17 27.99 65.30 30.09
  Q 65.34 30.67 64.76 30.71
  L 63.95 30.77
  A 0.57 0.57 0.0 0 1 63.33 30.20
  L 63.33 23.45
  Q 63.33 22.86 63.91 22.73
  Q 64.60 22.57 65.04 23.15
  Q 65.37 23.58 65.79 23.24
  Z"
/>
<path fill="#fefefe" d="
  M 76.47 26.78
  A 4.22 4.22 0.0 0 1 72.25 31.00
  A 4.22 4.22 0.0 0 1 68.03 26.78
  A 4.22 4.22 0.0 0 1 72.25 22.56
  A 4.22 4.22 0.0 0 1 76.47 26.78
  Z
  M 72.2336 29.3997
  A 2.61 2.20 90.8 0 0 74.4698 26.8207
  A 2.61 2.20 90.8 0 0 72.3064 24.1803
  A 2.61 2.20 90.8 0 0 70.0702 26.7593
  A 2.61 2.20 90.8 0 0 72.2336 29.3997
  Z"
/>
<path fill="#fefefe" d="
  M 80.10 29.34
  A 0.71 0.71 0.0 0 0 80.34 28.02
  Q 79.49 27.55 78.59 27.11
  C 76.88 26.28 76.77 23.97 78.58 23.07
  Q 80.16 22.28 81.80 22.82
  Q 82.26 22.97 82.26 23.46
  L 82.25 24.21
  Q 82.25 24.68 81.82 24.50
  Q 81.05 24.19 80.18 24.16
  Q 79.70 24.14 79.38 24.50
  Q 79.20 24.71 79.23 25.00
  Q 79.30 25.49 79.75 25.71
  L 81.32 26.46
  A 2.24 2.24 0.0 0 1 81.55 30.37
  Q 79.96 31.38 77.84 30.66
  Q 77.16 30.44 77.22 29.73
  L 77.26 29.28
  Q 77.31 28.65 77.87 28.94
  Q 78.95 29.51 80.10 29.34
  Z"
/>
<path fill="#fefefe" d="
  M 91.83 26.77
  A 4.22 4.22 0.0 0 1 87.61 30.99
  A 4.22 4.22 0.0 0 1 83.39 26.77
  A 4.22 4.22 0.0 0 1 87.61 22.55
  A 4.22 4.22 0.0 0 1 91.83 26.77
  Z
  M 89.7119 26.1474
  A 1.94 1.94 0.0 0 0 87.7152 24.2658
  L 87.3553 24.2764
  A 1.94 1.94 0.0 0 0 85.4737 26.2731
  L 85.5081 27.4326
  A 1.94 1.94 0.0 0 0 87.5048 29.3142
  L 87.8647 29.3036
  A 1.94 1.94 0.0 0 0 89.7463 27.3069
  L 89.7119 26.1474
  Z"
/>
<ellipse fill="#000000" cx="0.00" cy="0.00" transform="translate(72.27,26.79) rotate(90.8)" rx="2.61" ry="2.20"/>
<rect fill="#000000" x="-2.12" y="-2.52" transform="translate(87.61,26.79) rotate(-1.7)" width="4.24" height="5.04" rx="1.94"/>
</svg>
