<?xml version="1.0" encoding="UTF-8" standalone="no"?>
<!DOCTYPE svg PUBLIC "-//W3C//DTD SVG 1.1//EN" "http://www.w3.org/Graphics/SVG/1.1/DTD/svg11.dtd">
<svg xmlns="http://www.w3.org/2000/svg" version="1.1" viewBox="0.00 0.00 610.00 409.00">
<g stroke-width="2.00" fill="none" stroke-linecap="butt">
<path stroke="#343434" vector-effect="non-scaling-stroke" d="
  M 524.52 351.72
  L 524.04 351.93
  Q 523.65 352.10 523.23 352.11
  Q 503.90 352.55 491.08 352.56
  Q 417.16 352.62 343.16 352.64
  Q 340.44 352.64 337.85 352.52
  C 334.55 352.35 331.33 352.73 328.01 352.65
  Q 325.71 352.59 323.50 352.59
  Q 298.59 352.58 272.27 352.90
  C 270.24 352.92 268.09 352.22 266.20 352.33
  Q 260.92 352.65 256.01 352.65
  Q 175.75 352.68 95.50 352.47
  Q 90.44 352.45 84.53 352.22
  Q 79.01 352.01 73.56 352.14"
/>
<path stroke="#343434" vector-effect="non-scaling-stroke" d="
  M 308.0599 43.7444
  A 0.56 0.56 0.0 0 0 307.4979 43.1864
  L 293.9580 43.2336
  A 0.56 0.56 0.0 0 0 293.4000 43.7956
  L 293.4001 43.8356
  A 0.56 0.56 0.0 0 0 293.9621 44.3936
  L 307.5020 44.3464
  A 0.56 0.56 0.0 0 0 308.0600 43.7844
  L 308.0599 43.7444"
/>
<path stroke="#4d4f51" vector-effect="non-scaling-stroke" d="
  M 497.96 58.35
  A 1.12 1.12 0.0 0 0 496.84 57.23
  L 101.74 57.23
  A 1.12 1.12 0.0 0 0 100.62 58.35
  L 100.62 325.15
  A 1.12 1.12 0.0 0 0 101.74 326.27
  L 496.84 326.27
  A 1.12 1.12 0.0 0 0 497.96 325.15
  L 497.96 58.35"
/>
</g>
<path fill="#3a3a3a" d="
  M 524.52 351.72
  L 524.04 351.93
  Q 523.65 352.10 523.23 352.11
  Q 503.90 352.55 491.08 352.56
  Q 417.16 352.62 343.16 352.64
  Q 340.44 352.64 337.85 352.52
  C 334.55 352.35 331.33 352.73 328.01 352.65
  Q 325.71 352.59 323.50 352.59
  Q 298.59 352.58 272.27 352.90
  C 270.24 352.92 268.09 352.22 266.20 352.33
  Q 260.92 352.65 256.01 352.65
  Q 175.75 352.68 95.50 352.47
  Q 90.44 352.45 84.53 352.22
  Q 79.01 352.01 73.56 352.14
  Q 73.51 351.77 72.73 350.98
  Q 70.76 349.00 70.76 345.75
  Q 70.89 181.22 70.83 33.25
  C 70.83 29.88 73.38 27.22 76.69 27.22
  Q 298.09 27.23 521.63 27.21
  C 524.74 27.21 527.01 29.91 527.01 33.00
  Q 526.98 190.25 527.01 347.50
  Q 527.01 349.87 524.52 351.72
  Z
  M 308.0599 43.7444
  A 0.56 0.56 0.0 0 0 307.4979 43.1864
  L 293.9580 43.2336
  A 0.56 0.56 0.0 0 0 293.4000 43.7956
  L 293.4001 43.8356
  A 0.56 0.56 0.0 0 0 293.9621 44.3936
  L 307.5020 44.3464
  A 0.56 0.56 0.0 0 0 308.0600 43.7844
  L 308.0599 43.7444
  Z
  M 497.96 58.35
  A 1.12 1.12 0.0 0 0 496.84 57.23
  L 101.74 57.23
  A 1.12 1.12 0.0 0 0 100.62 58.35
  L 100.62 325.15
  A 1.12 1.12 0.0 0 0 101.74 326.27
  L 496.84 326.27
  A 1.12 1.12 0.0 0 0 497.96 325.15
  L 497.96 58.35
  Z"
/>
<rect fill="#2e2e2e" x="-7.33" y="-0.58" transform="translate(300.73,43.79) rotate(-0.2)" width="14.66" height="1.16" rx="0.56"/>
<rect fill="#606467" x="100.62" y="57.23" width="397.34" height="269.04" rx="1.12"/>
<path fill="#2e2e2e" d="
  M 524.52 351.72
  Q 524.38 351.82 524.41 352.00
  A 0.28 0.27 -3.4 0 0 524.69 352.24
  Q 549.65 352.23 574.89 352.23
  Q 575.48 352.23 575.94 352.62
  A 1.42 1.40 -63.4 0 1 576.40 354.04
  C 574.04 363.85 568.64 372.23 558.89 375.86
  Q 554.97 377.31 546.46 377.30
  Q 294.77 377.05 51.73 377.24
  Q 43.24 377.25 38.90 375.58
  C 30.08 372.18 25.64 363.44 24.74 354.25
  Q 24.54 352.21 26.60 352.21
  L 73.56 352.14
  Q 79.01 352.01 84.53 352.22
  Q 90.44 352.45 95.50 352.47
  Q 175.75 352.68 256.01 352.65
  Q 260.92 352.65 266.20 352.33
  C 268.09 352.22 270.24 352.92 272.27 352.90
  Q 298.59 352.58 323.50 352.59
  Q 325.71 352.59 328.01 352.65
  C 331.33 352.73 334.55 352.35 337.85 352.52
  Q 340.44 352.64 343.16 352.64
  Q 417.16 352.62 491.08 352.56
  Q 503.90 352.55 523.23 352.11
  Q 523.65 352.10 524.04 351.93
  L 524.52 351.72
  Z"
/>
</svg>
