<?xml version="1.0" encoding="UTF-8" standalone="no"?>
<!DOCTYPE svg PUBLIC "-//W3C//DTD SVG 1.1//EN" "http://www.w3.org/Graphics/SVG/1.1/DTD/svg11.dtd">
<svg xmlns="http://www.w3.org/2000/svg" version="1.1" viewBox="0.00 0.00 194.00 107.00">
<g stroke-width="2.00" fill="none" stroke-linecap="butt">
<path stroke="#9593b6" vector-effect="non-scaling-stroke" d="
  M 135.27 48.24
  C 134.49 44.54 128.90 43.84 125.94 44.66"
/>
<path stroke="#9593b6" vector-effect="non-scaling-stroke" d="
  M 91.40 46.40
  Q 88.79 43.96 84.91 44.48"
/>
<path stroke="#79395d" vector-effect="non-scaling-stroke" d="
  M 91.05 47.10
  Q 88.00 45.24 84.83 45.45"
/>
<path stroke="#79395d" vector-effect="non-scaling-stroke" d="
  M 134.73 48.83
  C 132.46 45.69 130.02 45.46 126.20 45.49"
/>
<path stroke="#79395d" vector-effect="non-scaling-stroke" d="
  M 88.6370 50.6669
  A 2.52 2.07 -2.8 0 0 86.0189 48.7225
  A 2.52 2.07 -2.8 0 0 83.6030 50.9131
  A 2.52 2.07 -2.8 0 0 86.2211 52.8575
  A 2.52 2.07 -2.8 0 0 88.6370 50.6669"
/>
<path stroke="#79395d" vector-effect="non-scaling-stroke" d="
  M 131.1825 50.5936
  A 2.56 2.06 -4.4 0 0 128.4720 48.7361
  A 2.56 2.06 -4.4 0 0 126.0775 50.9864
  A 2.56 2.06 -4.4 0 0 128.7880 52.8439
  A 2.56 2.06 -4.4 0 0 131.1825 50.5936"
/>
</g>
<path fill="#ffffff" d="
  M 135.27 48.24
  C 134.49 44.54 128.90 43.84 125.94 44.66
  Q 121.55 46.08 120.96 50.89
  Q 120.90 51.42 120.36 51.42
  L 94.18 51.24
  Q 93.70 51.24 93.63 50.77
  Q 93.21 48.09 91.40 46.40
  Q 88.79 43.96 84.91 44.48
  Q 79.38 45.21 78.33 50.78
  Q 78.23 51.31 77.69 51.30
  Q 67.07 51.10 57.22 51.03
  Q 56.35 51.02 56.36 50.14
  Q 56.36 50.07 56.36 49.10
  Q 56.37 48.20 57.27 48.18
  L 74.67 47.91
  Q 74.99 47.90 74.99 47.58
  L 74.97 44.92
  Q 74.96 44.63 74.67 44.62
  L 67.35 44.46
  A 1.34 1.34 0.0 0 1 66.04 43.10
  L 66.05 42.59
  Q 66.07 41.25 67.41 41.25
  L 71.97 41.24
  Q 72.69 41.24 72.71 40.53
  L 72.74 38.74
  A 0.64 0.64 0.0 0 0 72.11 38.09
  L 64.60 38.04
  Q 63.42 38.03 63.39 36.85
  L 63.37 35.71
  Q 63.34 34.50 64.54 34.50
  L 76.94 34.51
  Q 77.13 34.51 77.13 34.31
  L 77.15 31.91
  A 0.33 0.33 0.0 0 0 76.82 31.58
  L 60.45 31.62
  Q 59.29 31.62 59.21 30.45
  L 59.12 29.15
  Q 59.04 27.85 60.35 27.86
  L 75.89 28.01
  Q 76.29 28.01 76.28 27.61
  L 76.22 22.52
  Q 76.22 22.28 75.98 22.28
  L 70.89 22.26
  Q 69.59 22.25 70.65 21.49
  L 88.48 8.56
  Q 88.92 8.24 89.37 8.55
  L 108.12 21.72
  Q 108.93 22.29 107.94 22.29
  L 102.92 22.29
  Q 102.63 22.29 102.63 22.58
  L 102.58 27.78
  Q 102.58 27.99 102.78 27.99
  L 108.72 27.97
  Q 109.48 27.96 109.48 28.72
  L 109.49 41.99
  Q 109.49 42.49 109.99 42.51
  L 110.97 42.54
  Q 111.76 42.57 111.75 41.78
  L 111.65 22.81
  A 0.54 0.53 -88.0 0 1 112.22 22.27
  Q 116.91 22.57 122.16 22.45
  Q 127.42 22.32 131.99 24.05
  C 142.96 28.21 143.53 40.09 142.96 50.61
  Q 142.91 51.47 142.06 51.47
  L 136.95 51.52
  Q 136.15 51.53 136.11 50.73
  Q 136.06 49.91 135.27 48.24
  Z
  M 88.22 17.90
  Q 89.42 17.46 89.15 16.25
  A 0.74 0.74 0.0 0 0 88.51 15.67
  L 87.28 15.54
  Q 86.58 15.47 86.72 16.16
  Q 87.04 17.79 86.71 19.41
  A 0.89 0.89 0.0 0 0 87.34 20.44
  Q 88.30 20.71 88.97 20.06
  A 1.06 1.05 -30.2 0 0 89.25 19.02
  Q 88.95 17.91 88.26 18.04
  Q 87.35 18.22 88.22 17.90
  Z
  M 89.78 16.24
  Q 89.56 17.06 89.97 17.78
  Q 90.21 18.22 89.96 18.65
  Q 89.19 19.99 90.63 20.55
  A 0.88 0.88 0.0 0 0 91.80 19.53
  Q 91.46 18.00 91.83 16.44
  A 0.71 0.71 0.0 0 0 91.26 15.57
  L 90.93 15.51
  Q 90.03 15.35 89.78 16.24
  Z
  M 135.73 36.29
  A 1.14 1.14 0.0 0 0 136.52 34.32
  L 129.04 27.35
  A 1.14 1.14 0.0 0 0 128.38 27.05
  L 117.72 25.96
  A 1.14 1.14 0.0 0 0 116.47 27.15
  L 116.81 35.03
  A 1.14 1.14 0.0 0 0 117.94 36.12
  L 135.73 36.29
  Z"
/>
<rect fill="#ffffff" x="-3.36" y="-1.82" transform="translate(57.35,36.20) rotate(-0.6)" width="6.72" height="3.64" rx="1.26"/>
<rect fill="#ffffff" x="51.72" y="40.88" width="10.04" height="3.70" rx="1.46"/>
<path fill="#2b276d" d="
  M 135.27 48.24
  Q 134.59 48.25 134.73 48.83
  C 132.46 45.69 130.02 45.46 126.20 45.49
  Q 126.40 45.25 125.94 44.66
  C 128.90 43.84 134.49 44.54 135.27 48.24
  Z"
/>
<path fill="#2b276d" d="
  M 84.91 44.48
  Q 88.79 43.96 91.40 46.40
  Q 90.95 46.70 91.05 47.10
  Q 88.00 45.24 84.83 45.45
  Q 85.20 45.19 84.91 44.48
  Z"
/>
<path fill="#c64b4d" d="
  M 84.83 45.45
  Q 88.00 45.24 91.05 47.10
  Q 93.78 49.97 91.66 53.42
  C 89.73 56.58 84.51 56.84 81.71 54.54
  C 77.80 51.34 80.43 46.57 84.83 45.45
  Z
  M 88.6370 50.6669
  A 2.52 2.07 -2.8 0 0 86.0189 48.7225
  A 2.52 2.07 -2.8 0 0 83.6030 50.9131
  A 2.52 2.07 -2.8 0 0 86.2211 52.8575
  A 2.52 2.07 -2.8 0 0 88.6370 50.6669
  Z"
/>
<path fill="#c64b4d" d="
  M 126.20 45.49
  C 130.02 45.46 132.46 45.69 134.73 48.83
  Q 136.13 52.72 132.95 54.71
  Q 127.50 58.13 123.52 53.96
  Q 121.38 51.72 123.16 48.19
  Q 123.72 47.08 126.20 45.49
  Z
  M 131.1825 50.5936
  A 2.56 2.06 -4.4 0 0 128.4720 48.7361
  A 2.56 2.06 -4.4 0 0 126.0775 50.9864
  A 2.56 2.06 -4.4 0 0 128.7880 52.8439
  A 2.56 2.06 -4.4 0 0 131.1825 50.5936
  Z"
/>
<ellipse fill="#2b276d" cx="0.00" cy="0.00" transform="translate(86.12,50.79) rotate(-2.8)" rx="2.52" ry="2.07"/>
<ellipse fill="#2b276d" cx="0.00" cy="0.00" transform="translate(128.63,50.79) rotate(-4.4)" rx="2.56" ry="2.06"/>
<circle fill="#ffffff" cx="112.05" cy="58.24" r="1.25"/>
<path fill="#ffffff" d="
  M 166.87 62.84
  Q 167.13 62.43 167.54 62.22
  Q 168.32 61.81 168.27 62.70
  L 167.88 70.18
  A 1.41 1.41 0.0 0 0 168.67 71.52
  Q 169.65 71.99 170.36 71.55
  Q 172.04 70.51 172.36 68.41
  Q 173.44 61.13 166.98 59.24
  C 160.36 57.30 154.99 62.27 155.61 68.97
  C 156.25 75.90 163.02 77.44 168.96 75.57
  Q 169.38 75.44 169.41 75.88
  L 169.43 76.22
  A 0.65 0.63 -10.7 0 1 168.97 76.88
  C 162.80 78.70 155.33 77.19 154.09 69.94
  C 152.88 62.86 157.72 57.21 164.88 57.55
  Q 172.31 57.89 173.99 64.52
  Q 175.16 69.14 171.74 72.20
  C 170.25 73.54 167.11 73.55 166.50 71.23
  Q 166.32 70.53 165.88 71.11
  L 164.86 72.45
  Q 164.60 72.80 164.17 72.89
  Q 159.73 73.79 159.05 69.90
  Q 158.16 64.84 162.18 62.53
  C 163.34 61.87 165.21 61.95 166.21 62.93
  Q 166.59 63.30 166.87 62.84
  Z
  M 162.4146 71.6868
  A 4.26 2.90 104.9 0 0 166.3125 68.3157
  A 4.26 2.90 104.9 0 0 164.6054 63.4532
  A 4.26 2.90 104.9 0 0 160.7075 66.8243
  A 4.26 2.90 104.9 0 0 162.4146 71.6868
  Z"
/>
<path fill="#ffffff" d="
  M 28.75 69.28
  L 28.76 75.02
  Q 28.76 75.30 28.48 75.29
  L 26.99 75.26
  Q 26.72 75.26 26.72 74.99
  L 26.73 58.50
  Q 26.73 57.90 27.32 57.86
  Q 30.26 57.67 33.26 57.96
  C 38.73 58.49 39.06 65.51 34.78 67.80
  Q 32.36 69.09 29.46 68.66
  Q 28.75 68.55 28.75 69.28
  Z
  M 28.72 59.76
  L 28.78 66.68
  A 0.25 0.25 0.0 0 0 29.03 66.93
  L 31.72 66.90
  A 3.84 3.38 -0.5 0 0 35.53 63.49
  L 35.53 62.83
  A 3.84 3.38 -0.5 0 0 31.66 59.48
  L 28.97 59.51
  A 0.25 0.25 0.0 0 0 28.72 59.76
  Z"
/>
<path fill="#ffffff" d="
  M 54.1616 75.5840
  A 6.67 6.45 100.7 0 1 49.0621 67.8325
  A 6.67 6.45 100.7 0 1 56.6384 62.4760
  A 6.67 6.45 100.7 0 1 61.7379 70.2275
  A 6.67 6.45 100.7 0 1 54.1616 75.5840
  Z
  M 55.2945 74.1089
  A 5.04 4.40 91.2 0 0 59.7990 69.1621
  A 5.04 4.40 91.2 0 0 55.5055 64.0311
  A 5.04 4.40 91.2 0 0 51.0010 68.9779
  A 5.04 4.40 91.2 0 0 55.2945 74.1089
  Z"
/>
<path fill="#ffffff" d="
  M 70.52 72.88
  A 1.38 1.38 0.0 0 0 70.09 70.90
  Q 68.35 69.87 66.54 69.18
  C 64.07 68.23 63.49 65.18 65.72 63.57
  Q 67.98 61.92 71.39 62.75
  Q 72.25 62.96 72.26 63.84
  L 72.26 64.23
  Q 72.27 64.92 71.63 64.66
  C 69.97 63.98 66.81 63.47 66.45 66.10
  A 1.53 1.53 0.0 0 0 67.58 67.78
  C 77.38 70.36 71.93 77.50 64.81 75.14
  Q 64.18 74.93 64.18 74.27
  L 64.17 73.55
  A 0.47 0.47 0.0 0 1 64.86 73.14
  C 66.56 74.07 69.21 74.75 70.52 72.88
  Z"
/>
<path fill="#ffffff" d="
  M 78.57 69.52
  Q 76.22 69.50 77.60 71.40
  Q 77.89 71.80 78.38 72.47
  A 3.87 3.87 0.0 0 0 82.16 74.02
  Q 83.56 73.79 84.85 73.04
  Q 85.48 72.68 85.48 73.40
  L 85.48 73.82
  A 1.16 1.15 79.1 0 1 84.76 74.89
  C 74.80 78.85 71.82 65.79 79.08 62.92
  Q 82.21 61.68 84.70 63.75
  C 86.29 65.08 86.28 66.99 86.48 68.87
  A 0.66 0.65 -3.4 0 1 85.82 69.60
  L 78.57 69.52
  Z
  M 77.67 67.98
  L 84.15 68.00
  A 0.25 0.25 0.0 0 0 84.40 67.75
  L 84.40 67.61
  A 3.39 3.25 -89.9 0 0 81.15 64.21
  L 80.67 64.21
  A 3.39 3.25 -89.9 0 0 77.42 67.59
  L 77.42 67.73
  A 0.25 0.25 0.0 0 0 77.67 67.98
  Z"
/>
<path fill="#ffffff" d="
  M 92.07 64.36
  Q 93.36 62.63 95.41 62.52
  Q 96.26 62.48 96.27 63.32
  L 96.28 63.78
  Q 96.29 64.48 95.59 64.43
  Q 92.25 64.16 91.83 67.41
  Q 91.41 70.59 91.72 74.74
  Q 91.76 75.27 91.23 75.28
  L 90.25 75.29
  A 0.54 0.54 0.0 0 1 89.70 74.75
  L 89.71 63.35
  Q 89.71 62.78 90.28 62.76
  L 91.20 62.75
  Q 91.80 62.74 91.66 63.31
  Q 91.56 63.74 91.55 64.17
  Q 91.51 65.11 92.07 64.36
  Z"
/>
<path fill="#ffffff" d="
  M 125.55 64.85
  C 121.06 62.58 117.50 66.26 118.67 70.76
  C 119.53 74.03 122.91 74.87 125.62 73.28
  Q 126.04 73.03 126.03 73.52
  L 126.02 74.34
  Q 126.02 74.77 125.63 74.94
  C 119.49 77.70 114.68 72.17 117.02 66.29
  C 118.33 62.97 122.47 61.80 125.64 62.92
  A 0.70 0.69 9.1 0 1 126.11 63.56
  L 126.13 64.48
  Q 126.15 65.15 125.55 64.85
  Z"
/>
<path fill="#ffffff" d="
  M 130.46 70.46
  Q 131.32 74.14 135.23 74.03
  C 136.38 74.00 137.16 73.48 138.12 72.95
  Q 138.72 72.61 138.76 73.30
  L 138.78 73.71
  A 1.10 1.10 0.0 0 1 138.11 74.78
  C 134.35 76.39 129.65 75.88 128.64 71.28
  C 126.39 61.05 140.24 59.12 139.63 68.94
  Q 139.59 69.54 138.99 69.54
  L 131.19 69.54
  Q 130.25 69.54 130.46 70.46
  Z
  M 131.04 68.03
  L 137.18 67.93
  A 0.41 0.41 0.0 0 0 137.59 67.51
  L 137.58 67.42
  A 3.35 3.32 -1.0 0 0 134.18 64.16
  L 133.92 64.16
  A 3.35 3.32 -1.0 0 0 130.63 67.54
  L 130.63 67.63
  A 0.41 0.41 0.0 0 0 131.04 68.03
  Z"
/>
<path fill="#ffffff" d="
  M 144.57 64.97
  A 1.78 1.78 0.0 0 0 145.42 67.76
  C 147.46 68.43 151.08 69.69 150.46 72.45
  C 149.68 75.96 145.35 75.99 142.64 75.13
  Q 142.00 74.93 142.00 74.26
  L 142.00 73.52
  Q 142.00 72.91 142.53 73.21
  Q 144.14 74.14 146.45 74.05
  C 148.91 73.95 149.14 71.06 146.93 70.27
  Q 145.18 69.64 143.61 68.89
  C 141.76 68.01 141.40 65.38 142.92 64.01
  Q 145.59 61.61 149.74 63.01
  Q 150.03 63.11 150.02 63.41
  L 149.95 64.87
  Q 149.94 65.16 149.69 65.01
  C 148.27 64.16 145.76 63.45 144.57 64.97
  Z"
/>
<path fill="#ffffff" d="
  M 43.74 64.30
  Q 44.79 62.33 47.10 62.74
  Q 47.48 62.80 47.53 63.18
  L 47.67 64.20
  Q 47.72 64.50 47.42 64.45
  Q 43.04 63.81 43.00 68.42
  Q 42.97 71.46 43.01 74.51
  Q 43.02 75.21 42.33 75.30
  L 41.72 75.37
  A 0.66 0.65 86.2 0 1 40.98 74.72
  L 40.97 63.52
  A 0.77 0.76 -90.0 0 1 41.73 62.75
  L 42.23 62.75
  Q 43.11 62.74 43.01 63.61
  Q 42.96 63.99 43.15 64.31
  Q 43.46 64.83 43.74 64.30
  Z"
/>
<path fill="#ffffff" d="
  M 102.30 72.24
  Q 102.68 73.28 103.07 72.25
  L 106.21 63.84
  A 1.63 1.62 4.0 0 1 107.38 62.83
  L 107.74 62.75
  Q 108.82 62.51 108.40 63.53
  L 103.76 74.93
  Q 103.57 75.40 103.07 75.35
  L 102.17 75.27
  Q 101.55 75.21 101.33 74.64
  L 96.93 63.36
  A 0.37 0.36 70.1 0 1 97.15 62.88
  Q 97.71 62.70 98.29 62.74
  A 0.96 0.95 82.3 0 1 99.11 63.37
  L 102.30 72.24
  Z"
/>
<rect fill="#ffffff" x="111.00" y="62.77" width="2.02" height="12.54" rx="0.56"/>
<rect fill="#bf3f6c" x="55.95" y="84.03" width="1.80" height="9.16" rx="0.68"/>
<ellipse fill="#bf3f6c" cx="0.00" cy="0.00" transform="translate(70.22,85.13) rotate(105.6)" rx="1.03" ry="0.84"/>
<ellipse fill="#bf3f6c" cx="0.00" cy="0.00" transform="translate(138.29,85.11) rotate(97.1)" rx="1.02" ry="0.84"/>
<path fill="#bf3f6c" d="
  M 143.74 86.33
  L 143.60 84.79
  Q 143.55 84.19 144.15 84.09
  L 144.55 84.03
  Q 145.17 83.93 145.17 84.56
  L 145.10 92.64
  Q 145.10 93.39 144.36 93.23
  Q 143.13 92.97 141.94 93.20
  A 1.15 1.15 0.0 0 1 140.85 92.83
  Q 138.70 90.36 140.79 87.47
  A 1.26 1.23 17.7 0 1 141.80 86.96
  L 143.17 86.96
  Q 143.80 86.96 143.74 86.33
  Z
  M 142.7114 91.8498
  A 1.64 0.91 91.0 0 0 143.6499 90.2259
  A 1.64 0.91 91.0 0 0 142.7686 88.5702
  A 1.64 0.91 91.0 0 0 141.8301 90.1941
  A 1.64 0.91 91.0 0 0 142.7114 91.8498
  Z"
/>
<path fill="#bf3f6c" d="
  M 46.93 90.30
  C 44.81 89.03 42.76 86.85 45.77 84.83
  Q 47.22 83.85 48.64 84.95
  Q 49.15 85.35 48.90 85.94
  L 48.78 86.23
  A 0.43 0.43 0.0 0 1 48.11 86.40
  Q 47.53 85.93 46.81 86.07
  Q 46.19 86.20 46.02 86.81
  A 0.81 0.81 0.0 0 0 46.56 87.80
  Q 49.41 88.69 49.08 91.56
  Q 49.02 92.07 48.64 92.40
  Q 46.53 94.21 44.15 92.42
  Q 43.95 92.27 44.08 92.06
  L 44.22 91.82
  Q 44.46 91.41 44.88 91.64
  Q 45.56 92.03 46.35 91.93
  Q 47.01 91.85 47.25 91.24
  A 0.78 0.77 -64.3 0 0 46.93 90.30
  Z"
/>
<path fill="#bf3f6c" d="
  M 122.29 87.11
  Q 122.57 87.08 122.70 87.30
  Q 122.91 87.68 122.62 88.01
  Q 120.55 90.34 122.70 92.34
  Q 123.19 92.79 122.61 93.11
  Q 121.66 93.65 120.54 92.76
  A 1.60 1.60 0.0 0 1 119.96 91.24
  Q 120.25 89.49 119.50 88.04
  Q 119.25 87.57 119.54 87.13
  Q 120.14 86.19 120.88 85.53
  Q 121.43 85.03 121.52 85.77
  L 121.63 86.61
  A 0.59 0.59 0.0 0 0 122.29 87.11
  Z"
/>
<rect fill="#bf3f6c" x="-0.82" y="-3.18" transform="translate(138.39,90.03) rotate(2.2)" width="1.64" height="6.36" rx="0.75"/>
<path fill="#bf3f6c" d="
  M 55.0723 90.5588
  A 2.40 2.40 0.0 0 1 52.9317 93.1928
  L 52.5338 93.2339
  A 2.40 2.40 0.0 0 1 49.8998 91.0933
  L 49.7477 89.6212
  A 2.40 2.40 0.0 0 1 51.8883 86.9872
  L 52.2862 86.9461
  A 2.40 2.40 0.0 0 1 54.9202 89.0867
  L 55.0723 90.5588
  Z
  M 52.1932 91.9410
  A 1.75 1.09 95.8 0 0 53.4544 90.3102
  A 1.75 1.09 95.8 0 0 52.5468 88.4590
  A 1.75 1.09 95.8 0 0 51.2856 90.0898
  A 1.75 1.09 95.8 0 0 52.1932 91.9410
  Z"
/>
<path fill="#bf3f6c" d="
  M 61.84 91.38
  L 62.03 87.70
  Q 62.05 87.14 62.61 87.04
  L 62.89 86.99
  Q 63.57 86.88 63.58 87.57
  L 63.64 92.37
  Q 63.65 93.30 62.74 93.18
  Q 61.59 93.03 60.49 93.28
  A 1.39 1.39 0.0 0 1 58.78 91.93
  L 58.74 87.54
  A 0.45 0.44 -87.7 0 1 59.22 87.09
  L 59.58 87.12
  A 0.73 0.73 0.0 0 1 60.25 87.93
  Q 60.10 89.48 60.32 90.95
  Q 60.43 91.61 61.07 91.87
  Q 61.80 92.17 61.84 91.38
  Z"
/>
<path fill="#bf3f6c" d="
  M 67.06 91.91
  Q 67.76 92.10 68.54 91.97
  Q 69.16 91.87 68.77 92.36
  Q 67.64 93.77 66.00 93.22
  C 63.61 92.44 63.92 87.36 66.76 86.98
  Q 68.01 86.81 68.73 87.83
  Q 69.16 88.43 68.43 88.48
  L 67.64 88.54
  Q 67.02 88.58 66.57 89.01
  Q 65.68 89.84 66.31 91.26
  Q 66.53 91.77 67.06 91.91
  Z"
/>
<rect fill="#bf3f6c" x="-0.82" y="-3.02" transform="translate(70.23,90.09) rotate(0.8)" width="1.64" height="6.04" rx="0.68"/>
<path fill="#bf3f6c" d="
  M 77.1913 91.0055
  A 2.45 2.45 0.0 0 1 74.5410 93.2373
  L 74.1026 93.1997
  A 2.45 2.45 0.0 0 1 71.8708 90.5494
  L 71.9887 89.1745
  A 2.45 2.45 0.0 0 1 74.6390 86.9427
  L 75.0774 86.9803
  A 2.45 2.45 0.0 0 1 77.3092 89.6306
  L 77.1913 91.0055
  Z
  M 74.8211 91.9659
  A 1.78 1.00 86.1 0 0 75.6977 90.1220
  A 1.78 1.00 86.1 0 0 74.5789 88.4141
  A 1.78 1.00 86.1 0 0 73.7023 90.2580
  A 1.78 1.00 86.1 0 0 74.8211 91.9659
  Z"
/>
<path fill="#bf3f6c" d="
  M 80.29 88.51
  L 79.76 92.51
  Q 79.64 93.39 78.80 93.14
  L 78.43 93.03
  A 0.62 0.61 -81.8 0 1 77.99 92.44
  L 78.05 87.42
  Q 78.06 87.15 78.33 87.15
  L 82.44 87.12
  Q 82.67 87.12 82.71 87.34
  Q 83.29 90.29 82.92 92.76
  Q 82.83 93.42 82.21 93.18
  L 81.91 93.06
  A 0.67 0.67 0.0 0 1 81.48 92.45
  L 81.43 89.32
  A 0.67 0.65 19.3 0 0 81.17 88.80
  L 80.62 88.37
  Q 80.33 88.15 80.29 88.51
  Z"
/>
<path fill="#bf3f6c" d="
  M 85.99 91.80
  L 87.73 91.90
  Q 88.37 91.94 88.08 92.52
  L 87.91 92.86
  Q 87.65 93.38 87.08 93.37
  Q 83.29 93.36 83.96 89.36
  Q 84.47 86.38 87.36 87.11
  Q 87.81 87.22 88.05 87.61
  Q 88.75 88.74 88.67 90.03
  Q 88.63 90.61 88.07 90.77
  Q 87.23 91.00 86.16 90.87
  Q 85.91 90.84 85.85 91.09
  L 85.75 91.49
  Q 85.68 91.78 85.99 91.80
  Z"
/>
<path fill="#bf3f6c" d="
  M 91.30 89.22
  L 92.17 89.74
  Q 92.63 90.01 92.84 90.49
  C 93.90 92.96 90.42 94.36 89.00 92.37
  A 0.37 0.37 0.0 0 1 89.38 91.80
  Q 90.26 91.99 91.11 91.85
  Q 91.92 91.71 91.19 91.33
  Q 89.65 90.55 89.12 89.30
  Q 88.92 88.84 89.15 88.41
  Q 90.21 86.42 92.45 87.08
  A 0.47 0.47 0.0 0 1 92.77 87.66
  L 92.70 87.92
  A 0.49 0.49 0.0 0 1 92.10 88.26
  Q 91.71 88.16 91.34 88.33
  Q 90.49 88.74 91.30 89.22
  Z"
/>
<path fill="#bf3f6c" d="
  M 98.02 93.76
  L 98.05 95.47
  Q 98.05 96.00 97.53 95.99
  L 97.04 95.98
  Q 96.48 95.97 96.47 95.41
  L 96.41 87.72
  A 0.64 0.63 89.5 0 1 97.03 87.08
  L 100.33 86.99
  A 0.86 0.86 0.0 0 1 101.12 87.47
  Q 102.35 90.01 100.99 92.50
  Q 100.75 92.95 100.29 93.14
  Q 99.49 93.48 98.76 93.23
  Q 98.01 92.98 98.02 93.76
  Z
  M 98.9479 91.9881
  A 1.81 0.89 92.6 0 0 99.9191 90.2204
  A 1.81 0.89 92.6 0 0 99.1121 88.3719
  A 1.81 0.89 92.6 0 0 98.1409 90.1396
  A 1.81 0.89 92.6 0 0 98.9479 91.9881
  Z"
/>
<path fill="#bf3f6c" d="
  M 104.25 88.22
  Q 103.87 88.31 103.63 88.62
  Q 103.18 89.20 102.94 88.50
  Q 102.77 88.01 102.88 87.50
  Q 102.98 87.08 103.39 87.00
  C 107.33 86.21 107.02 90.01 107.02 92.51
  Q 107.02 93.07 106.46 93.10
  L 103.79 93.28
  A 1.66 1.65 -85.8 0 1 102.07 91.28
  Q 102.42 89.63 104.15 89.33
  Q 104.71 89.23 104.78 88.69
  Q 104.85 88.07 104.25 88.22
  Z"
/>
<path fill="#bf3f6c" d="
  M 109.69 87.44
  Q 110.17 86.88 110.89 87.02
  Q 111.18 87.08 111.16 87.37
  Q 111.06 88.68 109.94 89.34
  A 0.99 0.98 -10.4 0 0 109.47 90.01
  Q 109.31 91.03 109.49 92.06
  Q 109.61 92.77 108.96 93.07
  L 108.54 93.27
  Q 108.08 93.49 107.99 92.99
  Q 107.50 90.31 107.91 87.43
  Q 107.98 86.89 108.51 87.04
  Q 108.82 87.13 109.00 87.40
  Q 109.32 87.88 109.69 87.44
  Z"
/>
<path fill="#bf3f6c" d="
  M 113.57 88.24
  Q 113.05 88.25 112.67 88.58
  Q 112.10 89.08 111.99 88.33
  Q 111.94 87.98 112.02 87.64
  Q 112.12 87.15 112.65 87.03
  C 116.56 86.20 116.23 90.07 115.98 92.52
  Q 115.92 93.08 115.36 93.11
  L 112.95 93.23
  A 1.44 1.44 0.0 0 1 111.46 92.08
  Q 110.97 89.76 113.15 89.55
  Q 113.91 89.47 113.98 88.68
  Q 114.02 88.24 113.57 88.24
  Z
  M 113.3645 91.8744
  A 0.84 0.56 112.8 0 0 114.2062 91.3170
  A 0.84 0.56 112.8 0 0 114.0155 90.3256
  A 0.84 0.56 112.8 0 0 113.1738 90.8830
  A 0.84 0.56 112.8 0 0 113.3645 91.8744
  Z"
/>
<path fill="#bf3f6c" d="
  M 125.22 91.62
  Q 125.24 92.01 125.62 91.95
  L 126.01 91.89
  A 0.87 0.87 0.0 0 0 126.75 91.03
  L 126.75 87.52
  A 0.45 0.44 -89.4 0 1 127.20 87.07
  L 127.58 87.08
  Q 128.24 87.09 128.24 87.75
  L 128.25 92.50
  A 0.73 0.73 0.0 0 1 127.51 93.23
  Q 127.24 93.22 126.98 93.13
  Q 126.52 92.95 126.07 93.18
  C 125.13 93.68 124.01 92.98 123.78 92.01
  Q 123.30 90.05 123.50 87.85
  Q 123.55 87.26 124.14 87.19
  L 124.49 87.15
  A 0.42 0.41 84.2 0 1 124.96 87.54
  L 125.22 91.62
  Z"
/>
<path fill="#bf3f6c" d="
  M 134.66 90.22
  Q 134.87 89.22 134.87 88.02
  A 0.91 0.90 -9.7 0 1 135.49 87.15
  Q 136.00 86.99 136.53 87.02
  A 0.55 0.55 0.0 0 1 137.02 87.74
  L 135.88 91.02
  Q 134.22 95.84 132.69 90.97
  L 131.68 87.76
  Q 131.47 87.08 132.18 87.02
  L 132.49 86.99
  Q 133.29 86.93 133.51 87.69
  L 134.26 90.24
  Q 134.49 91.03 134.66 90.22
  Z"
/>
<path fill="#bf3f6c" d="
  M 148.21 88.27
  L 147.24 88.68
  A 0.45 0.44 80.3 0 1 146.62 88.24
  L 146.65 87.63
  A 0.69 0.69 0.0 0 1 147.36 86.98
  L 149.42 87.01
  A 0.82 0.82 0.0 0 1 150.18 87.61
  Q 150.78 89.79 150.50 92.52
  A 0.71 0.70 1.8 0 1 149.82 93.15
  L 146.96 93.20
  Q 146.09 93.22 145.95 92.36
  Q 145.51 89.68 148.15 89.30
  Q 148.65 89.23 148.76 88.73
  Q 148.93 87.96 148.21 88.27
  Z
  M 147.9673 91.9137
  A 0.89 0.42 116.9 0 0 148.7446 91.3100
  A 0.89 0.42 116.9 0 0 148.7727 90.3263
  A 0.89 0.42 116.9 0 0 147.9954 90.9300
  A 0.89 0.42 116.9 0 0 147.9673 91.9137
  Z"
/>
</svg>
